<svg width="127" height="154" viewBox="0 0 127 154" fill="none" xmlns="http://www.w3.org/2000/svg">
<g filter="url(#filter0_i_93_2387)">
<rect x="0.5" y="0.5" width="126" height="153" rx="4.5" fill="white"/>
<rect x="0.5" y="0.5" width="126" height="153" rx="4.5" stroke="#005BC4"/>
<path d="M42.544 27.045C42.848 27.471 43 27.685 43 28C43 28.316 42.848 28.529 42.544 28.955C41.178 30.871 37.689 35 33 35C28.31 35 24.822 30.87 23.456 28.955C23.152 28.529 23 28.315 23 28C23 27.684 23.152 27.471 23.456 27.045C24.822 25.129 28.311 21 33 21C37.69 21 41.178 25.13 42.544 27.045Z" stroke="#005BC4" stroke-width="1.5" stroke-linecap="round" stroke-linejoin="round"/>
<path d="M36 28C36 27.2044 35.6839 26.4413 35.1213 25.8787C34.5587 25.3161 33.7956 25 33 25C32.2044 25 31.4413 25.3161 30.8787 25.8787C30.3161 26.4413 30 27.2044 30 28C30 28.7956 30.3161 29.5587 30.8787 30.1213C31.4413 30.6839 32.2044 31 33 31C33.7956 31 34.5587 30.6839 35.1213 30.1213C35.6839 29.5587 36 28.7956 36 28Z" stroke="#005BC4" stroke-width="1.5" stroke-linecap="round" stroke-linejoin="round"/>
<path d="M65.448 22.848L61.24 34H59.56L55.352 22.848H56.904L60.408 32.464L63.912 22.848H65.448ZM67.7965 23.808C67.5192 23.808 67.2845 23.712 67.0925 23.52C66.9005 23.328 66.8045 23.0933 66.8045 22.816C66.8045 22.5387 66.9005 22.304 67.0925 22.112C67.2845 21.92 67.5192 21.824 67.7965 21.824C68.0632 21.824 68.2872 21.92 68.4685 22.112C68.6605 22.304 68.7565 22.5387 68.7565 22.816C68.7565 23.0933 68.6605 23.328 68.4685 23.52C68.2872 23.712 68.0632 23.808 67.7965 23.808ZM68.5005 25.232V34H67.0445V25.232H68.5005ZM78.982 29.28C78.982 29.5573 78.966 29.8507 78.934 30.16H71.926C71.9793 31.024 72.2727 31.7013 72.806 32.192C73.35 32.672 74.006 32.912 74.774 32.912C75.4033 32.912 75.926 32.768 76.342 32.48C76.7687 32.1813 77.0673 31.7867 77.238 31.296H78.806C78.5713 32.1387 78.102 32.8267 77.398 33.36C76.694 33.8827 75.8193 34.144 74.774 34.144C73.942 34.144 73.1953 33.9573 72.534 33.584C71.8833 33.2107 71.3713 32.6827 70.998 32C70.6247 31.3067 70.438 30.5067 70.438 29.6C70.438 28.6933 70.6193 27.8987 70.982 27.216C71.3447 26.5333 71.8513 26.0107 72.502 25.648C73.1633 25.2747 73.9207 25.088 74.774 25.088C75.606 25.088 76.342 25.2693 76.982 25.632C77.622 25.9947 78.1127 26.496 78.454 27.136C78.806 27.7653 78.982 28.48 78.982 29.28ZM77.478 28.976C77.478 28.4213 77.3553 27.9467 77.11 27.552C76.8647 27.1467 76.5287 26.8427 76.102 26.64C75.686 26.4267 75.222 26.32 74.71 26.32C73.974 26.32 73.3447 26.5547 72.822 27.024C72.31 27.4933 72.0167 28.144 71.942 28.976H77.478ZM92.5839 25.232L89.8479 34H88.3439L86.2319 27.04L84.1199 34H82.6159L79.8639 25.232H81.3519L83.3679 32.592L85.5439 25.232H87.0319L89.1599 32.608L91.1439 25.232H92.5839Z" fill="#272727"/>
<path d="M37.475 70.408L39.592 72.525M38.836 68.543L33.109 74.27C32.8131 74.5655 32.6113 74.942 32.529 75.352L32 78L34.648 77.47C35.058 77.388 35.434 77.187 35.73 76.891L41.457 71.164C41.6291 70.9919 41.7656 70.7876 41.8588 70.5627C41.9519 70.3379 41.9998 70.0969 41.9998 69.8535C41.9998 69.6101 41.9519 69.3691 41.8588 69.1443C41.7656 68.9194 41.6291 68.7151 41.457 68.543C41.2849 68.3709 41.0806 68.2344 40.8557 68.1412C40.6309 68.0481 40.3899 68.0002 40.1465 68.0002C39.9031 68.0002 39.6621 68.0481 39.4373 68.1412C39.2124 68.2344 39.0081 68.3709 38.836 68.543Z" stroke="#005BC4" stroke-width="2" stroke-linecap="round" stroke-linejoin="round"/>
<path d="M40 80V83C40 83.5304 39.7893 84.0391 39.4142 84.4142C39.0391 84.7893 38.5304 85 38 85H27C26.4696 85 25.9609 84.7893 25.5858 84.4142C25.2107 84.0391 25 83.5304 25 83V72C25 71.4696 25.2107 70.9609 25.5858 70.5858C25.9609 70.2107 26.4696 70 27 70H30" stroke="#005BC4" stroke-width="2" stroke-linecap="round" stroke-linejoin="round"/>
<path d="M57.688 73.032V76.76H61.752V77.96H57.688V81.8H62.232V83H56.232V71.832H62.232V73.032H57.688ZM63.8911 78.584C63.8911 77.688 64.0725 76.904 64.4351 76.232C64.7978 75.5493 65.2938 75.0213 65.9231 74.648C66.5631 74.2747 67.2778 74.088 68.0671 74.088C68.7498 74.088 69.3845 74.248 69.9711 74.568C70.5578 74.8773 71.0058 75.288 71.3151 75.8V71.16H72.7871V83H71.3151V81.352C71.0271 81.8747 70.6005 82.3067 70.0351 82.648C69.4698 82.9787 68.8085 83.144 68.0511 83.144C67.2725 83.144 66.5631 82.952 65.9231 82.568C65.2938 82.184 64.7978 81.6453 64.4351 80.952C64.0725 80.2587 63.8911 79.4693 63.8911 78.584ZM71.3151 78.6C71.3151 77.9387 71.1818 77.3627 70.9151 76.872C70.6485 76.3813 70.2858 76.008 69.8271 75.752C69.3791 75.4853 68.8831 75.352 68.3391 75.352C67.7951 75.352 67.2991 75.48 66.8511 75.736C66.4031 75.992 66.0458 76.3653 65.7791 76.856C65.5125 77.3467 65.3791 77.9227 65.3791 78.584C65.3791 79.256 65.5125 79.8427 65.7791 80.344C66.0458 80.8347 66.4031 81.2133 66.8511 81.48C67.2991 81.736 67.7951 81.864 68.3391 81.864C68.8831 81.864 69.3791 81.736 69.8271 81.48C70.2858 81.2133 70.6485 80.8347 70.9151 80.344C71.1818 79.8427 71.3151 79.2613 71.3151 78.6ZM75.9996 72.808C75.7223 72.808 75.4876 72.712 75.2956 72.52C75.1036 72.328 75.0076 72.0933 75.0076 71.816C75.0076 71.5387 75.1036 71.304 75.2956 71.112C75.4876 70.92 75.7223 70.824 75.9996 70.824C76.2663 70.824 76.4903 70.92 76.6716 71.112C76.8636 71.304 76.9596 71.5387 76.9596 71.816C76.9596 72.0933 76.8636 72.328 76.6716 72.52C76.4903 72.712 76.2663 72.808 75.9996 72.808ZM76.7036 74.232V83H75.2476V74.232H76.7036ZM80.9611 75.432V80.6C80.9611 81.0267 81.0518 81.3307 81.2331 81.512C81.4145 81.6827 81.7291 81.768 82.1771 81.768H83.2491V83H81.9371C81.1265 83 80.5185 82.8133 80.1131 82.44C79.7078 82.0667 79.5051 81.4533 79.5051 80.6V75.432H78.3691V74.232H79.5051V72.024H80.9611V74.232H83.2491V75.432H80.9611Z" fill="#272727"/>
<path d="M28 135C27.45 135 26.9793 134.804 26.588 134.413C26.1967 134.022 26.0007 133.551 26 133V120H25V118H30V117H36V118H41V120H40V133C40 133.55 39.8043 134.021 39.413 134.413C39.0217 134.805 38.5507 135.001 38 135H28ZM38 120H28V133H38V120ZM30 131H32V122H30V131ZM34 131H36V122H34V131Z" fill="#005BC4"/>
<path d="M59.704 120.848C60.92 120.848 61.9707 121.077 62.856 121.536C63.752 121.984 64.4347 122.629 64.904 123.472C65.384 124.315 65.624 125.307 65.624 126.448C65.624 127.589 65.384 128.581 64.904 129.424C64.4347 130.256 63.752 130.896 62.856 131.344C61.9707 131.781 60.92 132 59.704 132H56.232V120.848H59.704ZM59.704 130.8C61.144 130.8 62.2427 130.421 63 129.664C63.7573 128.896 64.136 127.824 64.136 126.448C64.136 125.061 63.752 123.979 62.984 123.2C62.2267 122.421 61.1333 122.032 59.704 122.032H57.688V130.8H59.704ZM75.5445 127.28C75.5445 127.557 75.5285 127.851 75.4965 128.16H68.4885C68.5418 129.024 68.8352 129.701 69.3685 130.192C69.9125 130.672 70.5685 130.912 71.3365 130.912C71.9658 130.912 72.4885 130.768 72.9045 130.48C73.3312 130.181 73.6298 129.787 73.8005 129.296H75.3685C75.1338 130.139 74.6645 130.827 73.9605 131.36C73.2565 131.883 72.3818 132.144 71.3365 132.144C70.5045 132.144 69.7578 131.957 69.0965 131.584C68.4458 131.211 67.9338 130.683 67.5605 130C67.1872 129.307 67.0005 128.507 67.0005 127.6C67.0005 126.693 67.1818 125.899 67.5445 125.216C67.9072 124.533 68.4138 124.011 69.0645 123.648C69.7258 123.275 70.4832 123.088 71.3365 123.088C72.1685 123.088 72.9045 123.269 73.5445 123.632C74.1845 123.995 74.6752 124.496 75.0165 125.136C75.3685 125.765 75.5445 126.48 75.5445 127.28ZM74.0405 126.976C74.0405 126.421 73.9178 125.947 73.6725 125.552C73.4272 125.147 73.0912 124.843 72.6645 124.64C72.2485 124.427 71.7845 124.32 71.2725 124.32C70.5365 124.32 69.9072 124.555 69.3845 125.024C68.8725 125.493 68.5792 126.144 68.5045 126.976H74.0405ZM78.9224 120.16V132H77.4664V120.16H78.9224ZM89.4039 127.28C89.4039 127.557 89.3879 127.851 89.3559 128.16H82.3479C82.4012 129.024 82.6945 129.701 83.2279 130.192C83.7719 130.672 84.4279 130.912 85.1959 130.912C85.8252 130.912 86.3479 130.768 86.7639 130.48C87.1905 130.181 87.4892 129.787 87.6599 129.296H89.2279C88.9932 130.139 88.5239 130.827 87.8199 131.36C87.1159 131.883 86.2412 132.144 85.1959 132.144C84.3639 132.144 83.6172 131.957 82.9559 131.584C82.3052 131.211 81.7932 130.683 81.4199 130C81.0465 129.307 80.8599 128.507 80.8599 127.6C80.8599 126.693 81.0412 125.899 81.4039 125.216C81.7665 124.533 82.2732 124.011 82.9239 123.648C83.5852 123.275 84.3425 123.088 85.1959 123.088C86.0279 123.088 86.7639 123.269 87.4039 123.632C88.0439 123.995 88.5345 124.496 88.8759 125.136C89.2279 125.765 89.4039 126.48 89.4039 127.28ZM87.8999 126.976C87.8999 126.421 87.7772 125.947 87.5319 125.552C87.2865 125.147 86.9505 124.843 86.5239 124.64C86.1079 124.427 85.6439 124.32 85.1319 124.32C84.3959 124.32 83.7665 124.555 83.2439 125.024C82.7319 125.493 82.4385 126.144 82.3639 126.976H87.8999ZM93.1018 124.432V129.6C93.1018 130.027 93.1924 130.331 93.3738 130.512C93.5551 130.683 93.8698 130.768 94.3177 130.768H95.3898V132H94.0778C93.2671 132 92.6591 131.813 92.2538 131.44C91.8484 131.067 91.6458 130.453 91.6458 129.6V124.432H90.5098V123.232H91.6458V121.024H93.1018V123.232H95.3898V124.432H93.1018ZM105.154 127.28C105.154 127.557 105.138 127.851 105.106 128.16H98.0979C98.1512 129.024 98.4445 129.701 98.9779 130.192C99.5219 130.672 100.178 130.912 100.946 130.912C101.575 130.912 102.098 130.768 102.514 130.48C102.941 130.181 103.239 129.787 103.41 129.296H104.978C104.743 130.139 104.274 130.827 103.57 131.36C102.866 131.883 101.991 132.144 100.946 132.144C100.114 132.144 99.3672 131.957 98.7059 131.584C98.0552 131.211 97.5432 130.683 97.1699 130C96.7965 129.307 96.6099 128.507 96.6099 127.6C96.6099 126.693 96.7912 125.899 97.1539 125.216C97.5165 124.533 98.0232 124.011 98.6739 123.648C99.3352 123.275 100.093 123.088 100.946 123.088C101.778 123.088 102.514 123.269 103.154 123.632C103.794 123.995 104.285 124.496 104.626 125.136C104.978 125.765 105.154 126.48 105.154 127.28ZM103.65 126.976C103.65 126.421 103.527 125.947 103.282 125.552C103.037 125.147 102.701 124.843 102.274 124.64C101.858 124.427 101.394 124.32 100.882 124.32C100.146 124.32 99.5165 124.555 98.9939 125.024C98.4819 125.493 98.1885 126.144 98.1139 126.976H103.65Z" fill="#272727"/>
</g>
<defs>
<filter id="filter0_i_93_2387" x="0" y="0" width="127" height="156" filterUnits="userSpaceOnUse" color-interpolation-filters="sRGB">
<feFlood flood-opacity="0" result="BackgroundImageFix"/>
<feBlend mode="normal" in="SourceGraphic" in2="BackgroundImageFix" result="shape"/>
<feColorMatrix in="SourceAlpha" type="matrix" values="0 0 0 0 0 0 0 0 0 0 0 0 0 0 0 0 0 0 127 0" result="hardAlpha"/>
<feOffset dy="2"/>
<feGaussianBlur stdDeviation="2"/>
<feComposite in2="hardAlpha" operator="arithmetic" k2="-1" k3="1"/>
<feColorMatrix type="matrix" values="0 0 0 0 0 0 0 0 0 0 0 0 0 0 0 0 0 0 0.06 0"/>
<feBlend mode="normal" in2="shape" result="effect1_innerShadow_93_2387"/>
</filter>
</defs>
</svg>
