<svg width="18" height="18" viewBox="0 0 18 18" fill="none" xmlns="http://www.w3.org/2000/svg">
<g id="App History">
<path id="Vector" fill-rule="evenodd" clip-rule="evenodd" d="M3.69659 13.2427C3.55599 13.3834 3.477 13.5741 3.477 13.773C3.477 13.9719 3.55599 14.1626 3.69659 14.3032C6.62534 17.232 11.3743 17.232 14.3031 14.3032C17.2318 11.3745 17.2318 6.6255 14.3031 3.69675C11.3743 0.767996 6.62534 0.767996 3.69659 3.69675C2.471 4.91854 1.70755 6.5279 1.53659 8.25H0.74984C0.601527 8.25003 0.456554 8.29403 0.333246 8.37644C0.209939 8.45886 0.113834 8.57598 0.0570817 8.71301C0.00032918 8.85003 -0.014523 9.0008 0.0144026 9.14627C0.0433283 9.29173 0.114733 9.42536 0.21959 9.53025L1.71959 11.0302L1.72109 11.0317C1.79071 11.1014 1.87341 11.1566 1.96442 11.1942C2.05543 11.2317 2.15297 11.251 2.25143 11.2508C2.3499 11.2506 2.44736 11.2309 2.53821 11.1929C2.62906 11.155 2.71151 11.0994 2.78084 11.0295L4.28084 9.53025C4.38574 9.42531 4.45716 9.29162 4.48606 9.14609C4.51497 9.00055 4.50005 8.84971 4.4432 8.71266C4.38636 8.5756 4.29014 8.45849 4.16672 8.37613C4.04329 8.29378 3.89822 8.24988 3.74984 8.25H3.04634C3.21591 6.90476 3.83611 5.65662 4.80587 4.70901C5.77563 3.76139 7.03776 3.17018 8.38655 3.03172C9.73534 2.89327 11.0913 3.21574 12.2333 3.94657C13.3754 4.67741 14.2362 5.77352 14.6755 7.05624C15.1149 8.33897 15.1068 9.73269 14.6526 11.0102C14.1984 12.2878 13.3249 13.3738 12.1744 14.0913C11.024 14.8089 9.6644 15.1156 8.31731 14.9615C6.97021 14.8074 5.71503 14.2016 4.75634 13.2427C4.61573 13.1024 4.42515 13.0235 4.22647 13.0235C4.02778 13.0235 3.83721 13.1024 3.69659 13.2427ZM7.49984 6C7.49984 5.80108 7.57886 5.61032 7.71951 5.46967C7.86016 5.32901 8.05093 5.25 8.24984 5.25C8.44875 5.25 8.63952 5.32901 8.78017 5.46967C8.92082 5.61032 8.99984 5.80108 8.99984 6V9H11.9998C12.1988 9 12.3895 9.07901 12.5302 9.21967C12.6708 9.36032 12.7498 9.55108 12.7498 9.75C12.7498 9.94891 12.6708 10.1397 12.5302 10.2803C12.3895 10.421 12.1988 10.5 11.9998 10.5H8.24984C8.05093 10.5 7.86016 10.421 7.71951 10.2803C7.57886 10.1397 7.49984 9.94891 7.49984 9.75V6Z" fill="#74706E"/>
</g>
</svg>
