<svg width="16" height="16" viewBox="0 0 16 16" fill="none" xmlns="http://www.w3.org/2000/svg">
<path d="M14.0003 0.833333H3.16699V0.5H14.667C14.7589 0.5 14.8337 0.574809 14.8337 0.666667V14.1667H14.5003V1.33333V0.833333H14.0003Z" fill="#F56565" stroke="#F56565"/>
<path d="M7.33366 13.1666H7.83366V12.6666V11.3333V10.8333H7.33366H3.33366H2.83366V11.3333V12.6666V13.1666H3.33366H7.33366ZM10.0003 10.5H10.5003V9.99996V8.66663V8.16663H10.0003H3.33366H2.83366V8.66663V9.99996V10.5H3.33366H10.0003ZM10.0003 7.83329H10.5003V7.33329V5.99996V5.49996H10.0003H3.33366H2.83366V5.99996V7.33329V7.83329H3.33366H10.0003ZM1.33366 3.16663H12.0003C12.0922 3.16663 12.167 3.24143 12.167 3.33329V15.3333C12.167 15.4251 12.0922 15.5 12.0003 15.5H1.33366C1.2418 15.5 1.16699 15.4251 1.16699 15.3333V3.33329C1.16699 3.24144 1.2418 3.16663 1.33366 3.16663Z" fill="#F56565" stroke="#F56565"/>
</svg>
