<svg width="48" height="48" viewBox="0 0 48 48" fill="none" xmlns="http://www.w3.org/2000/svg">
<path d="M24 48C37.2548 48 48 37.2548 48 24C48 10.7452 37.2548 0 24 0C10.7452 0 0 10.7452 0 24C0 37.2548 10.7452 48 24 48Z" fill="#2A2157"/>
<path d="M24 30.006V30M30 31V17C30 16.4696 29.7893 15.9609 29.4142 15.5858C29.0391 15.2107 28.5304 15 28 15H20C19.4696 15 18.9609 15.2107 18.5858 15.5858C18.2107 15.9609 18 16.4696 18 17V31C18 31.5304 18.2107 32.0391 18.5858 32.4142C18.9609 32.7893 19.4696 33 20 33H28C28.5304 33 29.0391 32.7893 29.4142 32.4142C29.7893 32.0391 30 31.5304 30 31Z" stroke="white" stroke-width="2" stroke-linecap="round" stroke-linejoin="round"/>
</svg>
