<svg width="18" height="18" viewBox="0 0 18 18" fill="none" xmlns="http://www.w3.org/2000/svg">
<g id="Apps &#38; Sites Usage">
<path id="Vector" d="M8.4375 6.75C8.98242 6.75 9.49219 6.85254 9.9668 7.05762C10.4414 7.2627 10.8574 7.54395 11.2148 7.90137C11.5723 8.25879 11.8535 8.6748 12.0586 9.14941C12.2637 9.62402 12.3691 10.1367 12.375 10.6875C12.375 11.2324 12.2725 11.7422 12.0674 12.2168C11.8623 12.6914 11.5811 13.1074 11.2236 13.4648C10.8662 13.8223 10.4502 14.1035 9.97559 14.3086C9.50098 14.5137 8.98828 14.6191 8.4375 14.625C7.89258 14.625 7.38281 14.5225 6.9082 14.3174C6.43359 14.1123 6.01758 13.8311 5.66016 13.4736C5.30273 13.1162 5.02148 12.7002 4.81641 12.2256C4.61133 11.751 4.50586 11.2383 4.5 10.6875C4.5 10.1426 4.60254 9.63281 4.80762 9.1582C5.0127 8.68359 5.29395 8.26758 5.65137 7.91016C6.00879 7.55273 6.4248 7.27148 6.89941 7.06641C7.37402 6.86133 7.88672 6.75586 8.4375 6.75ZM11.4785 10.125C11.3906 9.65625 11.2061 9.23145 10.9248 8.85059C10.6436 8.46973 10.292 8.16797 9.87012 7.94531C10.04 8.28516 10.1631 8.63965 10.2393 9.00879C10.3154 9.37793 10.3652 9.75 10.3887 10.125H11.4785ZM9.53613 11.25H7.33008C7.33594 11.3438 7.34766 11.4727 7.36523 11.6367C7.38281 11.8008 7.41211 11.9766 7.45312 12.1641C7.49414 12.3516 7.54395 12.5391 7.60254 12.7266C7.66113 12.9141 7.73145 13.0869 7.81348 13.2451C7.89551 13.4033 7.98633 13.5322 8.08594 13.6318C8.18555 13.7314 8.30273 13.7812 8.4375 13.7812C8.56055 13.7812 8.67188 13.7314 8.77148 13.6318C8.87109 13.5322 8.95898 13.4033 9.03516 13.2451C9.11133 13.0869 9.18164 12.9111 9.24609 12.7178C9.31055 12.5244 9.36035 12.334 9.39551 12.1465C9.43066 11.959 9.46289 11.7861 9.49219 11.6279C9.52148 11.4697 9.53613 11.3438 9.53613 11.25ZM7.33008 10.125H9.54492C9.53906 10.0371 9.52441 9.91406 9.50098 9.75586C9.47754 9.59766 9.44531 9.4248 9.4043 9.2373C9.36328 9.0498 9.31348 8.85938 9.25488 8.66602C9.19629 8.47266 9.12598 8.29688 9.04395 8.13867C8.96191 7.98047 8.87109 7.84863 8.77148 7.74316C8.67188 7.6377 8.56055 7.58789 8.4375 7.59375C8.30859 7.59375 8.19434 7.64355 8.09473 7.74316C7.99512 7.84277 7.9043 7.97168 7.82227 8.12988C7.74023 8.28809 7.66992 8.46387 7.61133 8.65723C7.55273 8.85059 7.50293 9.04102 7.46191 9.22852C7.4209 9.41602 7.3916 9.58887 7.37402 9.74707C7.35645 9.90527 7.3418 10.0312 7.33008 10.125ZM6.96973 7.96289C6.76465 8.07422 6.57715 8.20605 6.40723 8.3584C6.2373 8.51074 6.08203 8.67773 5.94141 8.85938C5.80078 9.04102 5.68652 9.24023 5.59863 9.45703C5.51074 9.67383 5.44336 9.89648 5.39648 10.125H6.48633C6.50977 9.75586 6.55664 9.38965 6.62695 9.02637C6.69727 8.66309 6.81152 8.30859 6.96973 7.96289ZM5.39648 11.25C5.47852 11.707 5.65723 12.123 5.93262 12.498C6.20801 12.873 6.54785 13.1748 6.95215 13.4033C6.7998 13.0693 6.69141 12.7207 6.62695 12.3574C6.5625 11.9941 6.51562 11.625 6.48633 11.25H5.39648ZM9.87891 13.4297C10.2949 13.207 10.6436 12.9053 10.9248 12.5244C11.2061 12.1436 11.3906 11.7188 11.4785 11.25H10.3887C10.3594 11.6191 10.3066 11.9883 10.2305 12.3574C10.1543 12.7266 10.0371 13.084 9.87891 13.4297ZM9.7998 0L14.625 4.8252V16.875H2.25V0H9.7998ZM10.125 1.9248V4.5H12.7002L10.125 1.9248ZM3.375 15.75H13.5V5.625H9V1.125H3.375V15.75Z" fill="#74706E"/>
</g>
</svg>
