<svg width="107" height="107" viewBox="0 0 107 107" fill="none" xmlns="http://www.w3.org/2000/svg">
<g filter="url(#filter0_dd_102_2824)">
<circle cx="53.5642" cy="51.5645" r="46.8435" fill="white"/>
</g>
<g clip-path="url(#clip0_102_2824)">
<path d="M79.1155 64.3402V67.5341H62.9964L68.2613 72.799L66.0156 75.0447L56.908 65.9371L66.0156 56.8296L68.2613 59.0753L62.9964 64.3402H79.1155ZM60.2516 53.5359L58.0558 55.8565C56.5753 54.4591 54.9035 53.3945 53.0404 52.6626C51.1774 51.9307 49.2228 51.5647 47.1767 51.5647C45.7128 51.5647 44.2989 51.756 42.9348 52.1386C41.5708 52.5212 40.2982 53.0535 39.1171 53.7355C37.9361 54.4176 36.8631 55.2493 35.8983 56.2307C34.9335 57.2122 34.1018 58.2935 33.4031 59.4745C32.7044 60.6556 32.1638 61.9282 31.7812 63.2922C31.3986 64.6563 31.2073 66.0702 31.2073 67.5341H28.0134C28.0134 65.5878 28.3045 63.6831 28.8868 61.82C29.469 59.9569 30.309 58.2352 31.4069 56.6549C32.5048 55.0746 33.8106 53.669 35.3244 52.438C36.8382 51.207 38.5266 50.2672 40.3897 49.6184C39.4582 49.0196 38.6264 48.3292 37.8945 47.5474C37.1626 46.7656 36.5304 45.9089 35.9981 44.9773C35.4658 44.0458 35.0749 43.0643 34.8254 42.033C34.5758 41.0016 34.4345 39.9203 34.4012 38.7892C34.4012 37.0259 34.7339 35.3707 35.3993 33.8237C36.0647 32.2767 36.9713 30.9209 38.1191 29.7565C39.2669 28.5921 40.6226 27.6771 42.1863 27.0118C43.7499 26.3464 45.4134 26.0137 47.1767 26.0137C48.94 26.0137 50.5951 26.3464 52.1422 27.0118C53.6892 27.6771 55.0449 28.5837 56.2094 29.7315C57.3738 30.8793 58.2887 32.2351 58.9541 33.7987C59.6195 35.3624 59.9522 37.0259 59.9522 38.7892C59.9522 41.0681 59.4282 43.1309 58.3802 44.9773C57.3322 46.8238 55.86 48.3708 53.9637 49.6184C55.1281 50.0509 56.2343 50.5999 57.2823 51.2653C58.3303 51.9307 59.3201 52.6875 60.2516 53.5359ZM37.5951 38.7892C37.5951 40.12 37.8446 41.3593 38.3436 42.5071C38.8427 43.6549 39.5247 44.6696 40.3897 45.5512C41.2547 46.4329 42.2694 47.1232 43.4339 47.6222C44.5983 48.1213 45.8459 48.3708 47.1767 48.3708C48.4908 48.3708 49.7301 48.1213 50.8946 47.6222C52.059 47.1232 53.0737 46.4412 53.9387 45.5762C54.8037 44.7112 55.4941 43.6964 56.0098 42.532C56.5254 41.3676 56.775 40.12 56.7583 38.7892C56.7583 37.475 56.5088 36.2357 56.0098 35.0713C55.5107 33.9069 54.8287 32.8922 53.9637 32.0271C53.0987 31.1621 52.0756 30.4718 50.8946 29.9561C49.7135 29.4404 48.4742 29.1909 47.1767 29.2075C45.8459 29.2075 44.6066 29.4571 43.4588 29.9561C42.311 30.4552 41.2963 31.1372 40.4147 32.0022C39.533 32.8672 38.8427 33.8902 38.3436 35.0713C37.8446 36.2524 37.5951 37.4917 37.5951 38.7892Z" fill="#005BC4"/>
</g>
<defs>
<filter id="filter0_dd_102_2824" x="0.332948" y="0.462443" width="106.463" height="106.463" filterUnits="userSpaceOnUse" color-interpolation-filters="sRGB">
<feFlood flood-opacity="0" result="BackgroundImageFix"/>
<feColorMatrix in="SourceAlpha" type="matrix" values="0 0 0 0 0 0 0 0 0 0 0 0 0 0 0 0 0 0 127 0" result="hardAlpha"/>
<feOffset dy="2.12925"/>
<feGaussianBlur stdDeviation="2.12925"/>
<feColorMatrix type="matrix" values="0 0 0 0 0 0 0 0 0 0 0 0 0 0 0 0 0 0 0.06 0"/>
<feBlend mode="normal" in2="BackgroundImageFix" result="effect1_dropShadow_102_2824"/>
<feColorMatrix in="SourceAlpha" type="matrix" values="0 0 0 0 0 0 0 0 0 0 0 0 0 0 0 0 0 0 127 0" result="hardAlpha"/>
<feOffset dy="2.12925"/>
<feGaussianBlur stdDeviation="3.19388"/>
<feColorMatrix type="matrix" values="0 0 0 0 0 0 0 0 0 0 0 0 0 0 0 0 0 0 0.1 0"/>
<feBlend mode="normal" in2="effect1_dropShadow_102_2824" result="effect2_dropShadow_102_2824"/>
<feBlend mode="normal" in="SourceGraphic" in2="effect2_dropShadow_102_2824" result="shape"/>
</filter>
<clipPath id="clip0_102_2824">
<rect width="51.102" height="51.102" fill="white" transform="translate(28.0137 26.0137)"/>
</clipPath>
</defs>
</svg>
