<svg width="49" height="48" viewBox="0 0 49 48" fill="none" xmlns="http://www.w3.org/2000/svg">
<path d="M24.25 48C37.5048 48 48.25 37.2548 48.25 24C48.25 10.7452 37.5048 0 24.25 0C10.9952 0 0.25 10.7452 0.25 24C0.25 37.2548 10.9952 48 24.25 48Z" fill="url(#paint0_linear_31_2816)"/>
<path fill-rule="evenodd" clip-rule="evenodd" d="M24 14C29.523 14 34 18.477 34 24C34.0035 26.3079 33.2053 28.5453 31.742 30.33L31.762 30.352L31.63 30.464C30.6921 31.5731 29.5235 32.4642 28.2056 33.0749C26.8878 33.6856 25.4525 34.0014 24 34C21.05 34 18.4 32.723 16.57 30.693L16.37 30.463L16.238 30.353L16.258 30.329C14.7949 28.5446 13.9968 26.3075 14 24C14 18.477 18.477 14 24 14ZM24 29C22.14 29 20.459 29.592 19.207 30.406C20.5896 31.4429 22.2718 32.0024 24 32C25.7282 32.0024 27.4104 31.4429 28.793 30.406C27.3623 29.4894 25.6991 29.0015 24 29ZM24 16C22.4945 16 21.0196 16.4247 19.7447 17.2255C18.4699 18.0262 17.4468 19.1704 16.7932 20.5266C16.1395 21.8827 15.8818 23.3958 16.0497 24.8919C16.2175 26.388 16.8041 27.8064 17.742 28.984C19.363 27.821 21.575 27 24 27C26.425 27 28.637 27.821 30.258 28.984C31.1959 27.8064 31.7825 26.388 31.9504 24.8919C32.1182 23.3958 31.8605 21.8827 31.2069 20.5266C30.5532 19.1704 29.5302 18.0262 28.2553 17.2255C26.9804 16.4247 25.5055 16 24 16ZM24 18C25.0609 18 26.0783 18.4214 26.8284 19.1716C27.5786 19.9217 28 20.9391 28 22C28 23.0609 27.5786 24.0783 26.8284 24.8284C26.0783 25.5786 25.0609 26 24 26C22.9391 26 21.9217 25.5786 21.1716 24.8284C20.4214 24.0783 20 23.0609 20 22C20 20.9391 20.4214 19.9217 21.1716 19.1716C21.9217 18.4214 22.9391 18 24 18ZM24 20C23.4696 20 22.9609 20.2107 22.5858 20.5858C22.2107 20.9609 22 21.4696 22 22C22 22.5304 22.2107 23.0391 22.5858 23.4142C22.9609 23.7893 23.4696 24 24 24C24.5304 24 25.0392 23.7893 25.4142 23.4142C25.7893 23.0391 26 22.5304 26 22C26 21.4696 25.7893 20.9609 25.4142 20.5858C25.0392 20.2107 24.5304 20 24 20Z" fill="white"/>
<defs>
<linearGradient id="paint0_linear_31_2816" x1="8.19287" y1="7" x2="37.6929" y2="43" gradientUnits="userSpaceOnUse">
<stop stop-color="#5E72E4"/>
<stop offset="1" stop-color="#825EE4"/>
</linearGradient>
</defs>
</svg>
