<svg width="16" height="17" viewBox="0 0 16 17" fill="none" xmlns="http://www.w3.org/2000/svg">
<path fill-rule="evenodd" clip-rule="evenodd" d="M15.5 14.3505C15.5 15.54 14.54 16.5 13.3505 16.5H2.6495C1.46 16.5 0.5 15.54 0.5 14.3505V3.6495C0.5 2.46 1.46 1.5 2.6495 1.5H5V0.7575C5.00121 0.581023 5.0634 0.410391 5.17603 0.274523C5.28866 0.138655 5.44481 0.0459079 5.618 0.0119998L5.75 0C6.164 0 6.5 0.321 6.5 0.7575V1.5H9.5V0.7575C9.50121 0.581023 9.5634 0.410391 9.67603 0.274523C9.78866 0.138655 9.94481 0.0459079 10.118 0.0119998L10.25 0C10.664 0 11 0.321 11 0.7575V1.5H13.3505C14.54 1.5 15.5 2.46 15.5 3.6495V14.3505ZM2 6V13.995C2 14.55 2.45 15 3.005 15H12.995C13.55 15 14 14.55 14 13.995V6H2ZM4.25 12C4.6175 12 4.925 12.2745 4.988 12.618L5 12.75C5 13.1175 4.7255 13.425 4.382 13.488L4.25 13.5C4.05169 13.498 3.86206 13.4184 3.72183 13.2782C3.5816 13.1379 3.50195 12.9483 3.5 12.75C3.5 12.3825 3.7745 12.075 4.118 12.012L4.25 12ZM8 12C8.3675 12 8.675 12.2745 8.738 12.618L8.75 12.75C8.75 13.1175 8.4755 13.425 8.132 13.488L8 13.5C7.80169 13.498 7.61206 13.4184 7.47183 13.2782C7.3316 13.1379 7.25195 12.9483 7.25 12.75C7.25 12.3825 7.5245 12.075 7.868 12.012L8 12ZM11.75 12C12.1175 12 12.425 12.2745 12.488 12.618L12.5 12.75C12.5 13.1175 12.2255 13.425 11.882 13.488L11.75 13.5C11.5517 13.498 11.3621 13.4184 11.2218 13.2782C11.0816 13.1379 11.002 12.9483 11 12.75C11 12.3825 11.2745 12.075 11.618 12.012L11.75 12ZM4.25 9.75C4.6175 9.75 4.925 10.0245 4.988 10.368L5 10.5C5 10.8675 4.7255 11.175 4.382 11.238L4.25 11.25C4.05169 11.248 3.86206 11.1684 3.72183 11.0282C3.5816 10.8879 3.50195 10.6983 3.5 10.5C3.5 10.1325 3.7745 9.825 4.118 9.762L4.25 9.75ZM8 9.75C8.3675 9.75 8.675 10.0245 8.738 10.368L8.75 10.5C8.75 10.8675 8.4755 11.175 8.132 11.238L8 11.25C7.80169 11.248 7.61206 11.1684 7.47183 11.0282C7.3316 10.8879 7.25195 10.6983 7.25 10.5C7.25 10.1325 7.5245 9.825 7.868 9.762L8 9.75ZM11.75 9.75C12.1175 9.75 12.425 10.0245 12.488 10.368L12.5 10.5C12.5 10.8675 12.2255 11.175 11.882 11.238L11.75 11.25C11.5517 11.248 11.3621 11.1684 11.2218 11.0282C11.0816 10.8879 11.002 10.6983 11 10.5C11 10.1325 11.2745 9.825 11.618 9.762L11.75 9.75ZM4.25 7.5C4.6175 7.5 4.925 7.7745 4.988 8.118L5 8.25C5 8.6175 4.7255 8.925 4.382 8.988L4.25 9C4.05169 8.99805 3.86206 8.9184 3.72183 8.77817C3.5816 8.63794 3.50195 8.44831 3.5 8.25C3.5 7.8825 3.7745 7.575 4.118 7.512L4.25 7.5ZM8 7.5C8.3675 7.5 8.675 7.7745 8.738 8.118L8.75 8.25C8.75 8.6175 8.4755 8.925 8.132 8.988L8 9C7.80169 8.99805 7.61206 8.9184 7.47183 8.77817C7.3316 8.63794 7.25195 8.44831 7.25 8.25C7.25 7.8825 7.5245 7.575 7.868 7.512L8 7.5ZM11.75 7.5C12.1175 7.5 12.425 7.7745 12.488 8.118L12.5 8.25C12.5 8.6175 12.2255 8.925 11.882 8.988L11.75 9C11.5517 8.99805 11.3621 8.9184 11.2218 8.77817C11.0816 8.63794 11.002 8.44831 11 8.25C11 7.8825 11.2745 7.575 11.618 7.512L11.75 7.5ZM2 4.5H14V4.005C14 3.45 13.55 3 12.995 3H3.005C2.45 3 2 3.45 2 4.005V4.5Z" fill="#005BC4"/>
</svg>
