<svg width="16" height="14" viewBox="0 0 16 14" fill="none" xmlns="http://www.w3.org/2000/svg">
<g id="Camera">
<path id="Stroke 1" fill-rule="evenodd" clip-rule="evenodd" d="M10.28 1.03847C11.0375 1.33997 11.2693 2.38997 11.579 2.72747C11.8888 3.06497 12.332 3.17972 12.5772 3.17972C13.8807 3.17972 14.9375 4.23647 14.9375 5.53922V9.88547C14.9375 11.633 13.52 13.0505 11.7725 13.0505H4.2275C2.47925 13.0505 1.0625 11.633 1.0625 9.88547V5.53922C1.0625 4.23647 2.11925 3.17972 3.42275 3.17972C3.66725 3.17972 4.1105 3.06497 4.421 2.72747C4.73075 2.38997 4.96175 1.33997 5.71925 1.03847C6.4775 0.736972 9.5225 0.736972 10.28 1.03847Z" stroke="#74706E" stroke-width="1.5" stroke-linecap="round" stroke-linejoin="round"/>
<path id="Stroke 13" d="M12.1216 5.125H12.1284" stroke="#74706E" stroke-width="2" stroke-linecap="round" stroke-linejoin="round"/>
<path id="Stroke 5" fill-rule="evenodd" clip-rule="evenodd" d="M10.3842 7.84601C10.3842 6.52901 9.31697 5.46176 7.99997 5.46176C6.68297 5.46176 5.61572 6.52901 5.61572 7.84601C5.61572 9.16301 6.68297 10.2303 7.99997 10.2303C9.31697 10.2303 10.3842 9.16301 10.3842 7.84601Z" stroke="#74706E" stroke-width="1.5" stroke-linecap="round" stroke-linejoin="round"/>
</g>
</svg>
