<svg width="30" height="30" viewBox="0 0 30 30" fill="none" xmlns="http://www.w3.org/2000/svg">
<g clip-path="url(#clip0_31_2946)">
<path d="M15.0004 23.3456C19.6099 23.3456 23.3466 19.6087 23.3466 14.9992C23.3466 10.3896 19.6099 6.65271 15.0004 6.65271C10.3908 6.65271 6.65393 10.3896 6.65393 14.9992C6.65393 19.6087 10.3907 23.3456 15.0003 23.3456" fill="white"/>
<path d="M4.20592 10.8981C3.58326 9.81955 2.85139 8.68763 2.01029 7.50232C0.693539 9.78248 0.000288868 12.3691 0.000244143 15.0022C0.000199417 17.6352 0.693361 20.2219 2.01004 22.5021C3.32672 24.7823 5.2205 26.6757 7.50099 27.9919C9.78148 29.3081 12.3683 30.0007 15.0013 30.0001C16.3819 28.0638 17.3192 26.6677 17.8134 25.8118C18.7624 24.1679 19.9899 21.8144 21.4958 18.7511V18.7494C20.8379 19.89 19.8913 20.8373 18.7512 21.496C17.611 22.1547 16.3175 22.5016 15.0008 22.5018C13.6841 22.502 12.3905 22.1555 11.2502 21.4971C10.1098 20.8388 9.16293 19.8918 8.50471 18.7514C6.45955 14.9372 5.02662 12.3193 4.20592 10.8981Z" fill="#229342"/>
<path d="M15.001 29.9995C16.9709 29.9998 18.9215 29.6121 20.7415 28.8584C22.5614 28.1047 24.2151 26.9998 25.608 25.6068C27.0008 24.2139 28.1056 22.5602 28.8592 20.7401C29.6128 18.9201 30.0005 16.9695 30 14.9996C29.9995 12.3665 29.3058 9.77997 27.9888 7.49995C25.1472 7.21987 23.0501 7.07983 21.6974 7.07983C20.1637 7.07983 17.9312 7.21987 14.9999 7.49995L14.9983 7.50112C16.3151 7.50047 17.6088 7.84656 18.7493 8.50458C19.8899 9.1626 20.8371 10.1093 21.4956 11.2496C22.1542 12.3899 22.5009 13.6834 22.5009 15.0002C22.5009 16.317 22.1541 17.6105 21.4955 18.7508L15.001 29.9995Z" fill="#FBC116"/>
<path d="M15.0004 20.9388C18.2798 20.9388 20.9382 18.2804 20.9382 15.0009C20.9382 11.7214 18.2798 9.06299 15.0003 9.06299C11.721 9.06299 9.0625 11.7215 9.0625 15.0009C9.0625 18.2803 11.721 20.9388 15.0004 20.9388Z" fill="#1A73E8"/>
<path d="M15.0004 7.50051H27.9891C26.6729 5.21999 24.7795 3.32619 22.4993 2.00955C20.219 0.692901 17.6323 -0.000178129 14.9992 3.43404e-08C12.3661 0.000178198 9.77953 0.693607 7.49946 2.01056C5.21939 3.32751 3.32624 5.22157 2.01038 7.50227L8.50479 18.7511L8.50655 18.752C7.84766 17.612 7.50058 16.3185 7.50019 15.0018C7.4998 13.685 7.84613 12.3914 8.50434 11.2509C9.16255 10.1105 10.1094 9.16346 11.2498 8.50508C12.3901 7.84671 13.6837 7.5002 15.0005 7.50039L15.0004 7.50051Z" fill="#E33B2E"/>
</g>
<defs>
<clipPath id="clip0_31_2946">
<rect width="30" height="30" fill="white"/>
</clipPath>
</defs>
</svg>
