<svg width="45" height="46" viewBox="0 0 45 46" fill="none" xmlns="http://www.w3.org/2000/svg">
<circle cx="22.5" cy="23" r="22.5" fill="#297EFF" fill-opacity="0.1"/>
<path d="M22.9993 10.1667C15.666 10.1667 9.66602 16.1667 9.66602 23.5001C9.66602 30.8334 15.666 36.8334 22.9993 36.8334C30.3327 36.8334 36.3327 30.8334 36.3327 23.5001C36.3327 16.1667 30.3327 10.1667 22.9993 10.1667ZM22.9993 34.1667C17.1193 34.1667 12.3327 29.3801 12.3327 23.5001C12.3327 17.6201 17.1193 12.8334 22.9993 12.8334C28.8793 12.8334 33.666 17.6201 33.666 23.5001C33.666 29.3801 28.8793 34.1667 22.9993 34.1667ZM29.1193 17.6067L20.3327 26.3934L16.8793 22.9534L14.9993 24.8334L20.3327 30.1667L30.9993 19.5001L29.1193 17.6067Z" fill="#005BC4"/>
</svg>
