<svg width="49" height="48" viewBox="0 0 49 48" fill="none" xmlns="http://www.w3.org/2000/svg">
<path d="M24.5 48C37.7548 48 48.5 37.2548 48.5 24C48.5 10.7452 37.7548 0 24.5 0C11.2452 0 0.5 10.7452 0.5 24C0.5 37.2548 11.2452 48 24.5 48Z" fill="#FB9C40"/>
<g clip-path="url(#clip0_31_2741)">
<path fill-rule="evenodd" clip-rule="evenodd" d="M29.5 20C29.5 22.7615 27.2615 25 24.5 25C21.7385 25 19.5 22.7615 19.5 20C19.5 17.2385 21.7385 15 24.5 15C27.2615 15 29.5 17.2385 29.5 20ZM28.5 20C28.5 21.0609 28.0786 22.0783 27.3284 22.8284C26.5783 23.5786 25.5609 24 24.5 24C23.4391 24 22.4217 23.5786 21.6716 22.8284C20.9214 22.0783 20.5 21.0609 20.5 20C20.5 18.9391 20.9214 17.9217 21.6716 17.1716C22.4217 16.4214 23.4391 16 24.5 16C25.5609 16 26.5783 16.4214 27.3284 17.1716C28.0786 17.9217 28.5 18.9391 28.5 20Z" fill="white"/>
<path d="M27.75 26C27.6968 25.9879 27.6411 25.9943 27.592 26.0181C27.5429 26.0419 27.5034 26.0817 27.48 26.131L25.5 31.786V30L25.2125 27.9895C25.3043 27.9702 25.3888 27.9254 25.4563 27.8603C25.5239 27.7953 25.5718 27.7125 25.5945 27.6215L25.8445 26.6215C25.863 26.5478 25.8644 26.4709 25.8487 26.3966C25.833 26.3223 25.8005 26.2525 25.7538 26.1926C25.7071 26.1327 25.6474 26.0842 25.5791 26.0508C25.5109 26.0175 25.436 26.0001 25.36 26H23.641C23.5651 26 23.4901 26.0173 23.4219 26.0507C23.3536 26.084 23.2938 26.1324 23.2471 26.1922C23.2003 26.2521 23.1678 26.3218 23.1521 26.3961C23.1363 26.4704 23.1376 26.5473 23.156 26.621L23.406 27.621C23.4287 27.7121 23.4765 27.795 23.5441 27.8601C23.6116 27.9253 23.6962 27.9701 23.788 27.9895L23.5 30V31.348L21.52 26.131C21.4966 26.0817 21.4571 26.0419 21.408 26.0181C21.3589 25.9943 21.3032 25.9879 21.25 26C21.0589 26.0461 20.8675 26.0915 20.676 26.136C19.545 26.401 18.147 26.728 17.404 27.216C16.5225 27.7945 16 28.4765 16 29.25V32.5H33V29.25C33 28.4765 32.4775 27.795 31.596 27.216C30.853 26.728 29.455 26.401 28.324 26.136C28.1225 26.089 27.929 26.044 27.75 26Z" fill="white"/>
</g>
<defs>
<clipPath id="clip0_31_2741">
<rect width="24" height="24" fill="white" transform="translate(12.5 12)"/>
</clipPath>
</defs>
</svg>
