<svg width="46" height="46" viewBox="0 0 46 46" fill="none" xmlns="http://www.w3.org/2000/svg">
<circle cx="23" cy="23" r="23" fill="#FFBE16" fill-opacity="0.1"/>
<path d="M21.0769 13.6452C22.8813 13.6452 24.4404 13.9855 25.7541 14.6661C27.0836 15.3309 28.0966 16.2885 28.7931 17.5389C29.5053 18.7893 29.8614 20.2613 29.8614 21.9549C29.8614 23.6485 29.5053 25.1205 28.7931 26.3709C28.0966 27.6055 27.0836 28.5552 25.7541 29.2199C24.4404 29.8689 22.8813 30.1934 21.0769 30.1934H15.9249V13.6452H21.0769ZM21.0769 28.4127C23.2137 28.4127 24.844 27.8508 25.9678 26.727C27.0916 25.5874 27.6534 23.9967 27.6534 21.9549C27.6534 19.8973 27.0836 18.2907 25.944 17.1353C24.8202 15.9799 23.1979 15.4021 21.0769 15.4021H18.0854V28.4127H21.0769Z" fill="#FFBE16"/>
</svg>
