<svg width="14" height="16" viewBox="0 0 14 16" fill="none" xmlns="http://www.w3.org/2000/svg">
<g id="Group">
<path id="Vector" d="M3.62507 1.625C2.45807 1.66025 1.76282 1.79 1.28132 2.2715C0.62207 2.9315 0.62207 3.99275 0.62207 6.116V10.9955C0.62207 13.1195 0.62207 14.1808 1.28132 14.8408C1.93982 15.5 3.00107 15.5 5.12207 15.5H8.87207C10.9938 15.5 12.0543 15.5 12.7128 14.84C13.3728 14.1808 13.3728 13.1195 13.3728 10.9955V6.116C13.3728 3.9935 13.3728 2.9315 12.7128 2.2715C12.2321 1.79 11.5361 1.66025 10.3691 1.625" stroke="#74706E" stroke-linecap="round" stroke-linejoin="round"/>
<path id="Vector_2" d="M8.125 7.25H10.75M3.25 8C3.25 8 3.625 8 4 8.75C4 8.75 5.191 6.875 6.25 6.5M8.125 11.75H10.75M4 11.75H4.75M3.622 1.8125C3.622 1.088 4.21 0.5 4.9345 0.5H9.0595C9.4076 0.5 9.74144 0.638281 9.98758 0.884422C10.2337 1.13056 10.372 1.4644 10.372 1.8125C10.372 2.1606 10.2337 2.49444 9.98758 2.74058C9.74144 2.98672 9.4076 3.125 9.0595 3.125H4.9345C4.5864 3.125 4.25256 2.98672 4.00642 2.74058C3.76028 2.49444 3.622 2.1606 3.622 1.8125Z" stroke="#74706E" stroke-linecap="round" stroke-linejoin="round"/>
</g>
</svg>
