<svg width="16" height="16" viewBox="0 0 16 16" fill="none" xmlns="http://www.w3.org/2000/svg">
<path d="M15.3905 4.63248L15.3902 4.63199L13.3904 1.29896C13.3903 1.29894 13.3903 1.29893 13.3903 1.29891C13.3844 1.28907 13.376 1.28093 13.366 1.27527L13.6612 0.753716L13.366 1.27527C13.3561 1.26963 13.3448 1.26665 13.3333 1.26663L15.3905 4.63248ZM15.3905 4.63248C15.3967 4.64285 15.4 4.65472 15.4 4.66681L15.4 4.66827C15.4011 5.06742 15.2863 5.45831 15.0695 5.79346C14.8527 6.12861 14.5433 6.39361 14.1788 6.55629C13.8143 6.71896 13.4104 6.77231 13.0161 6.70986C12.6219 6.6474 12.2543 6.47183 11.9579 6.20446L11.5553 5.84124L11.1533 6.20517C10.7762 6.54657 10.2857 6.73563 9.777 6.73563C9.26832 6.73563 8.77779 6.54657 8.40069 6.20517L7.99835 5.8409L7.59569 6.20483C7.21875 6.54551 6.72875 6.73413 6.22067 6.73413C5.71259 6.73413 5.22259 6.54551 4.84565 6.20483L4.44345 5.84131L4.04114 6.20472C3.66316 6.54616 3.17157 6.73459 2.6622 6.73329H2.66067H2.65613C2.10978 6.73174 1.58636 6.51341 1.20084 6.12625L0.775678 6.54961L1.20084 6.12625C0.815157 5.73891 0.599043 5.21429 0.600004 4.66768L0.600004 4.66682C0.600008 4.65472 0.603303 4.64285 0.609538 4.63248L0.609833 4.63199M15.3905 4.63248L0.609833 4.63199M0.609833 4.63199L2.60965 1.29896C2.60967 1.29893 2.60969 1.29889 2.60971 1.29886C2.61563 1.28904 2.62399 1.28092 2.63396 1.27527C2.64394 1.26963 2.65521 1.26665 2.66667 1.26663L0.609833 4.63199ZM2.65534 7.33329H2.66067C3.31917 7.33497 3.95469 7.09136 4.44334 6.64996C4.93057 7.09032 5.56393 7.33413 6.22067 7.33413L2.65534 7.33329ZM2.66678 1.26663H13.3332H2.66678Z" stroke="#596CFF" stroke-width="1.2"/>
<path d="M13.3444 9.26659V9.26664L13.3519 9.26654C13.368 9.26633 13.384 9.26603 13.4 9.26565V15.3333C13.4 15.3509 13.393 15.3679 13.3805 15.3804C13.368 15.3929 13.351 15.3999 13.3333 15.3999H9.93333V11.9999V11.3999H9.33333H6.66667H6.06667V11.9999V15.3999H2.66667C2.64898 15.3999 2.63203 15.3929 2.61953 15.3804C2.60702 15.3679 2.6 15.3509 2.6 15.3333V9.26572C2.61831 9.26611 2.63662 9.26639 2.65494 9.26656L2.65494 9.26658L2.65967 9.26659C3.27314 9.26761 3.87959 9.14574 4.44353 8.90928C4.54655 8.95246 4.65112 8.99193 4.75703 9.02761C5.32739 9.22138 5.9305 9.3002 6.5315 9.2595C7.03767 9.22523 7.53388 9.10675 7.99988 8.90958C8.10267 8.95259 8.20701 8.99192 8.31267 9.02749C8.88338 9.22099 9.48675 9.29959 10.088 9.25875C10.595 9.22431 11.0921 9.1055 11.5588 8.90784C12.1233 9.1447 12.7303 9.26705 13.3444 9.26659Z" stroke="#596CFF" stroke-width="1.2"/>
</svg>
