<svg width="24" height="24" viewBox="0 0 24 24" fill="none" xmlns="http://www.w3.org/2000/svg">
<path d="M20.5 11.6367C20.9688 11.957 21.3867 12.3203 21.7539 12.7266C22.1211 13.1328 22.4375 13.5781 22.7031 14.0625C22.9688 14.5469 23.1641 15.0586 23.2891 15.5977C23.4141 16.1367 23.4844 16.6875 23.5 17.25C23.5 18.1797 23.3242 19.0547 22.9727 19.875C22.6211 20.6953 22.1367 21.4102 21.5195 22.0195C20.9023 22.6289 20.1875 23.1094 19.375 23.4609C18.5625 23.8125 17.6875 23.9922 16.75 24C16.0391 24 15.3516 23.8945 14.6875 23.6836C14.0234 23.4727 13.4141 23.168 12.8594 22.7695C12.3047 22.3711 11.8125 21.8945 11.3828 21.3398C10.9531 20.7852 10.6211 20.1719 10.3867 19.5H1V1.5H4V0H5.5V1.5H16V0H17.5V1.5H20.5V11.6367ZM2.5 3V6H19V3H17.5V4.5H16V3H5.5V4.5H4V3H2.5ZM10.0352 18C10.0117 17.7578 10 17.5078 10 17.25C10 16.5781 10.0938 15.9258 10.2812 15.293C10.4688 14.6602 10.7539 14.0625 11.1367 13.5H10V12H11.5V13.0078C11.8203 12.6094 12.1758 12.2578 12.5664 11.9531C12.957 11.6484 13.3789 11.3867 13.832 11.168C14.2852 10.9492 14.7578 10.7852 15.25 10.6758C15.7422 10.5664 16.2422 10.5078 16.75 10.5C17.5312 10.5 18.2812 10.6289 19 10.8867V7.5H2.5V18H10.0352ZM16.75 22.5C17.4766 22.5 18.1562 22.3633 18.7891 22.0898C19.4219 21.8164 19.9766 21.4414 20.4531 20.9648C20.9297 20.4883 21.3047 19.9336 21.5781 19.3008C21.8516 18.668 21.9922 17.9844 22 17.25C22 16.5234 21.8633 15.8438 21.5898 15.2109C21.3164 14.5781 20.9414 14.0234 20.4648 13.5469C19.9883 13.0703 19.4336 12.6953 18.8008 12.4219C18.168 12.1484 17.4844 12.0078 16.75 12C16.0234 12 15.3438 12.1367 14.7109 12.4102C14.0781 12.6836 13.5234 13.0586 13.0469 13.5352C12.5703 14.0117 12.1953 14.5664 11.9219 15.1992C11.6484 15.832 11.5078 16.5156 11.5 17.25C11.5 17.9766 11.6367 18.6562 11.9102 19.2891C12.1836 19.9219 12.5586 20.4766 13.0352 20.9531C13.5117 21.4297 14.0664 21.8047 14.6992 22.0781C15.332 22.3516 16.0156 22.4922 16.75 22.5ZM17.5 16.5H19.75V18H16V13.5H17.5V16.5ZM4 12H5.5V13.5H4V12ZM7 12H8.5V13.5H7V12ZM7 9H8.5V10.5H7V9ZM4 15H5.5V16.5H4V15ZM7 15H8.5V16.5H7V15ZM11.5 10.5H10V9H11.5V10.5ZM14.5 10.5H13V9H14.5V10.5ZM17.5 10.5H16V9H17.5V10.5Z" fill="#005BC4"/>
</svg>
