<svg width="30" height="30" viewBox="0 0 30 30" fill="none" xmlns="http://www.w3.org/2000/svg">
<g clip-path="url(#clip0_135_3378)">
<mask id="mask0_135_3378" style="mask-type:alpha" maskUnits="userSpaceOnUse" x="0" y="0" width="30" height="30">
<path fill-rule="evenodd" clip-rule="evenodd" d="M21.2735 29.7951C21.5122 29.8882 21.7676 29.9311 22.0236 29.9213C22.2796 29.9114 22.5309 29.849 22.7618 29.7379L28.9383 26.7658C29.2564 26.6127 29.5248 26.3729 29.7126 26.074C29.9004 25.7751 30 25.4292 30 25.0762V4.92396C30.0001 4.5709 29.9005 4.22499 29.7126 3.92604C29.5248 3.6271 29.2564 3.38725 28.9383 3.23411L22.7618 0.262472C22.4128 0.094544 22.0202 0.0392541 21.6384 0.104255C21.2566 0.169255 20.9044 0.351332 20.6306 0.625285L8.80641 11.4126L3.65625 7.50302C3.42389 7.32671 3.13716 7.23726 2.84577 7.25019C2.55438 7.26312 2.27669 7.3776 2.06086 7.5738L0.408984 9.07638C0.280254 9.19346 0.177378 9.33613 0.106939 9.49524C0.0365004 9.65436 4.88005e-05 9.82643 -8.35616e-05 10.0004C-0.000215924 10.1745 0.0359738 10.3466 0.106171 10.5058C0.176367 10.665 0.279026 10.8078 0.407578 10.9251L4.87406 15L0.407813 19.0751C0.27933 19.1923 0.176733 19.3352 0.10658 19.4944C0.0364269 19.6536 0.00026067 19.8256 0.000393018 19.9996C0.000525367 20.1736 0.0369534 20.3456 0.107349 20.5047C0.177744 20.6638 0.280558 20.8065 0.409219 20.9236L2.06109 22.4261C2.2769 22.6224 2.55457 22.7369 2.84596 22.7499C3.13735 22.7628 3.4241 22.6734 3.65648 22.4972L8.80664 18.5878L20.6309 29.3749C20.8139 29.5578 21.0325 29.7009 21.2735 29.7951ZM22.5045 8.18974L13.5328 15L22.5047 21.8104L22.5045 8.18974Z" fill="white"/>
</mask>
<g mask="url(#mask0_135_3378)">
<path d="M28.9386 3.2391L22.7572 0.262533C22.4081 0.0943894 22.0153 0.0389825 21.6333 0.103988C21.2513 0.168993 20.8989 0.351192 20.6251 0.625345L0.389603 19.0751C0.261024 19.1924 0.158341 19.3351 0.0881254 19.4944C0.0179101 19.6536 -0.01829 19.8257 -0.0181576 19.9997C-0.0180252 20.1737 0.0184367 20.3457 0.0888941 20.5048C0.159352 20.6639 0.262252 20.8066 0.391009 20.9236L2.04382 22.4262C2.25969 22.6227 2.53754 22.7374 2.82915 22.7503C3.12075 22.7633 3.40769 22.6737 3.64015 22.4972L28.0084 4.01089C28.8259 3.39074 30.0001 3.97386 30.0001 4.99995V4.92824C30.0001 4.57528 29.9005 4.22949 29.7127 3.93064C29.5249 3.63178 29.2566 3.39223 28.9386 3.2391Z" fill="#0065A9"/>
<g filter="url(#filter0_d_135_3378)">
<path d="M28.9385 26.7612L22.7571 29.7373C22.408 29.9055 22.0153 29.961 21.6333 29.8961C21.2513 29.8312 20.8989 29.6491 20.625 29.375L0.389534 10.925C0.260956 10.8077 0.158272 10.6649 0.0880568 10.5057C0.0178415 10.3465 -0.0183586 10.1744 -0.0182263 10.0004C-0.0180939 9.82641 0.018368 9.65435 0.0888255 9.49525C0.159283 9.33615 0.262184 9.19351 0.390941 9.07647L2.04375 7.57389C2.25962 7.37742 2.53748 7.26274 2.82908 7.24977C3.12068 7.2368 3.40762 7.32635 3.64008 7.50287L28.0083 25.989C28.8258 26.6094 30 26.0262 30 25.0001V25.0719C30 25.4248 29.9004 25.7706 29.7126 26.0695C29.5248 26.3683 29.2565 26.6081 28.9385 26.7612Z" fill="#007ACC"/>
</g>
<g filter="url(#filter1_d_135_3378)">
<path d="M22.7573 29.738C22.4081 29.9058 22.0153 29.961 21.6334 29.896C21.2514 29.8309 20.899 29.6489 20.625 29.3749C21.3169 30.0668 22.5 29.5767 22.5 28.5982V1.40158C22.5 0.423059 21.3169 -0.0670186 20.625 0.625091C20.899 0.35115 21.2514 0.169084 21.6334 0.104049C22.0153 0.0390138 22.4081 0.0942219 22.7573 0.262044L28.9376 3.23439C29.2558 3.38743 29.5244 3.62723 29.7123 3.92618C29.9003 4.22514 30 4.5711 30 4.92423V25.0763C30 25.4294 29.9003 25.7754 29.7123 26.0743C29.5244 26.3733 29.2558 26.6131 28.9376 26.7661L22.7573 29.738Z" fill="#1F9CF0"/>
</g>
<path opacity="0.25" fill-rule="evenodd" clip-rule="evenodd" d="M21.2555 29.7951C21.4942 29.8881 21.7494 29.9311 22.0054 29.9212C22.2614 29.9114 22.5127 29.849 22.7435 29.7379L28.92 26.7658C29.2381 26.6127 29.5065 26.3728 29.6944 26.0739C29.8822 25.775 29.9818 25.429 29.9817 25.076V4.92396C29.9818 4.5709 29.8822 4.22499 29.6944 3.92604C29.5065 3.6271 29.2381 3.38725 28.92 3.23411L22.7435 0.262472C22.3945 0.094544 22.0019 0.0392541 21.6201 0.104255C21.2383 0.169255 20.8861 0.351332 20.6123 0.625285L8.78813 11.4126L3.63797 7.50325C3.40561 7.32694 3.11888 7.2375 2.82749 7.25043C2.5361 7.26335 2.25841 7.37784 2.04258 7.57404L0.390705 9.07661C0.262006 9.19372 0.15916 9.33639 0.0887417 9.4955C0.0183235 9.65462 -0.0181168 9.82668 -0.0182491 10.0007C-0.0183815 10.1747 0.017797 10.3468 0.0879731 10.506C0.158149 10.6652 0.260778 10.8081 0.389299 10.9254L4.85578 15L0.389533 19.0748C0.260981 19.1921 0.158323 19.3349 0.0881258 19.4941C0.017929 19.6534 -0.0182608 19.8255 -0.0181284 19.9995C-0.017996 20.1735 0.0184555 20.3456 0.0888945 20.5047C0.159333 20.6638 0.262209 20.8065 0.39094 20.9236L2.04281 22.4261C2.25862 22.6224 2.53629 22.7369 2.82768 22.7499C3.11907 22.7628 3.40582 22.6734 3.63821 22.4972L8.7886 18.5876L20.6128 29.3749C20.7957 29.5578 21.0146 29.7009 21.2555 29.7951ZM22.4864 8.1895L13.5145 15L22.4864 21.8102V8.1895Z" fill="url(#paint0_linear_135_3378)"/>
</g>
</g>
<defs>
<filter id="filter0_d_135_3378" x="-8.35223" y="-1.08546" width="46.6862" height="39.3419" filterUnits="userSpaceOnUse" color-interpolation-filters="sRGB">
<feFlood flood-opacity="0" result="BackgroundImageFix"/>
<feColorMatrix in="SourceAlpha" type="matrix" values="0 0 0 0 0 0 0 0 0 0 0 0 0 0 0 0 0 0 127 0" result="hardAlpha"/>
<feOffset/>
<feGaussianBlur stdDeviation="4.167"/>
<feColorMatrix type="matrix" values="0 0 0 0 0 0 0 0 0 0 0 0 0 0 0 0 0 0 0.25 0"/>
<feBlend mode="overlay" in2="BackgroundImageFix" result="effect1_dropShadow_135_3378"/>
<feBlend mode="normal" in="SourceGraphic" in2="effect1_dropShadow_135_3378" result="shape"/>
</filter>
<filter id="filter1_d_135_3378" x="12.291" y="-8.25648" width="26.043" height="46.513" filterUnits="userSpaceOnUse" color-interpolation-filters="sRGB">
<feFlood flood-opacity="0" result="BackgroundImageFix"/>
<feColorMatrix in="SourceAlpha" type="matrix" values="0 0 0 0 0 0 0 0 0 0 0 0 0 0 0 0 0 0 127 0" result="hardAlpha"/>
<feOffset/>
<feGaussianBlur stdDeviation="4.167"/>
<feColorMatrix type="matrix" values="0 0 0 0 0 0 0 0 0 0 0 0 0 0 0 0 0 0 0.25 0"/>
<feBlend mode="overlay" in2="BackgroundImageFix" result="effect1_dropShadow_135_3378"/>
<feBlend mode="normal" in="SourceGraphic" in2="effect1_dropShadow_135_3378" result="shape"/>
</filter>
<linearGradient id="paint0_linear_135_3378" x1="14.9817" y1="0.0773161" x2="14.9817" y2="29.9226" gradientUnits="userSpaceOnUse">
<stop stop-color="white"/>
<stop offset="1" stop-color="white" stop-opacity="0"/>
</linearGradient>
<clipPath id="clip0_135_3378">
<rect width="30" height="30" fill="white"/>
</clipPath>
</defs>
</svg>
