<svg width="16" height="16" viewBox="0 0 16 16" fill="none" xmlns="http://www.w3.org/2000/svg">
<g id="Group">
<path id="Vector" d="M8.75 11.75C8.75 12.5456 9.06607 13.3087 9.62868 13.8713C10.1913 14.4339 10.9544 14.75 11.75 14.75C12.5456 14.75 13.3087 14.4339 13.8713 13.8713C14.4339 13.3087 14.75 12.5456 14.75 11.75C14.75 10.9544 14.4339 10.1913 13.8713 9.62868C13.3087 9.06607 12.5456 8.75 11.75 8.75C10.9544 8.75 10.1913 9.06607 9.62868 9.62868C9.06607 10.1913 8.75 10.9544 8.75 11.75Z" stroke="#74706E" stroke-width="1.3" stroke-linecap="round" stroke-linejoin="round"/>
<path id="Vector_2" d="M11.75 8.75V11.75H14.75M8 1.25V4.25C8 4.44891 8.07902 4.63968 8.21967 4.78033C8.36032 4.92098 8.55109 5 8.75 5H11.75" stroke="#74706E" stroke-width="1.3" stroke-linecap="round" stroke-linejoin="round"/>
<path id="Vector_3" d="M7.625 14.75H2.75C2.35218 14.75 1.97064 14.592 1.68934 14.3107C1.40804 14.0294 1.25 13.6478 1.25 13.25V2.75C1.25 2.35218 1.40804 1.97064 1.68934 1.68934C1.97064 1.40804 2.35218 1.25 2.75 1.25H8L11.75 5V6.5M11.75 8.75V11.75" stroke="#74706E" stroke-width="1.3" stroke-linecap="round" stroke-linejoin="round"/>
</g>
</svg>
