<svg width="16" height="16" viewBox="0 0 16 16" fill="none" xmlns="http://www.w3.org/2000/svg">
<g id="Group">
<path id="Vector" d="M1.25 5.75V10.25C1.25 12.371 1.25 13.4323 1.90925 14.0908C2.56775 14.75 3.629 14.75 5.75 14.75H10.25C12.371 14.75 13.4323 14.75 14.0908 14.0908C14.75 13.4323 14.75 12.371 14.75 10.25V5.75C14.75 3.629 14.75 2.56775 14.0908 1.90925C13.4323 1.25 12.371 1.25 10.25 1.25H5.75" stroke="#74706E" stroke-linecap="round"/>
<path id="Vector_2" d="M10.25 10.25V10.625H10.625V10.25H10.25ZM4.51549 3.98449C4.48062 3.94962 4.43923 3.92196 4.39367 3.90309C4.34812 3.88422 4.29929 3.87451 4.24999 3.87451C4.20068 3.87451 4.15185 3.88422 4.1063 3.90309C4.06074 3.92196 4.01935 3.94962 3.98449 3.98449C3.94962 4.01935 3.92196 4.06074 3.90309 4.1063C3.88422 4.15185 3.87451 4.20068 3.87451 4.24999C3.87451 4.29929 3.88422 4.34812 3.90309 4.39367C3.92196 4.43923 3.94962 4.48062 3.98449 4.51549L4.51549 3.98449ZM9.87499 4.99999V10.25H10.625V4.99999H9.87499ZM10.25 9.87499H4.99999V10.625H10.25V9.87499ZM10.5155 9.98449L4.51549 3.98449L3.98449 4.51549L9.98449 10.5155L10.5155 9.98449Z" fill="#74706E"/>
</g>
</svg>
