<svg width="16" height="11" viewBox="0 0 16 11" fill="none" xmlns="http://www.w3.org/2000/svg">
<path fill-rule="evenodd" clip-rule="evenodd" d="M11.16 2.28003C11.0863 2.21137 11.0272 2.12857 10.9862 2.03657C10.9452 1.94457 10.9232 1.84526 10.9214 1.74455C10.9196 1.64385 10.9382 1.54382 10.9759 1.45043C11.0136 1.35705 11.0697 1.27221 11.141 1.20099C11.2122 1.12977 11.297 1.07363 11.3904 1.03591C11.4838 0.998188 11.5838 0.979663 11.6845 0.98144C11.7852 0.983217 11.8845 1.00526 11.9765 1.04625C12.0685 1.08724 12.1513 1.14634 12.22 1.22003L15.47 4.47003L16 5.00003L15.47 5.53003L12.22 8.78003C12.0778 8.91251 11.8898 8.98464 11.6955 8.98121C11.5012 8.97778 11.3158 8.89907 11.1784 8.76165C11.041 8.62424 10.9623 8.43885 10.9588 8.24455C10.9554 8.05025 11.0275 7.86221 11.16 7.72003L13.13 5.75003H3.25C3.02019 5.75003 2.79262 5.7953 2.5803 5.88324C2.36798 5.97119 2.17507 6.10009 2.01256 6.26259C1.85006 6.4251 1.72116 6.61802 1.63321 6.83034C1.54527 7.04266 1.5 7.27022 1.5 7.50003C1.5 7.72984 1.54527 7.95741 1.63321 8.16973C1.72116 8.38205 1.85006 8.57497 2.01256 8.73747C2.17507 8.89997 2.36798 9.02887 2.5803 9.11682C2.79262 9.20477 3.02019 9.25003 3.25 9.25003H5.25C5.44891 9.25003 5.63968 9.32905 5.78033 9.4697C5.92098 9.61035 6 9.80112 6 10C6 10.1989 5.92098 10.3897 5.78033 10.5304C5.63968 10.671 5.44891 10.75 5.25 10.75H3.25C2.38805 10.75 1.5614 10.4076 0.951903 9.79813C0.34241 9.18863 0 8.36199 0 7.50003C0 6.63808 0.34241 5.81143 0.951903 5.20193C1.5614 4.59244 2.38805 4.25003 3.25 4.25003H13.13L11.16 2.28003Z" fill="#D70D00"/>
</svg>
