<svg width="30" height="30" viewBox="0 0 30 30" fill="none" xmlns="http://www.w3.org/2000/svg">
<g clip-path="url(#clip0_135_3373)">
<path d="M6.30949 18.9047C6.30949 20.6428 4.90477 22.0477 3.16664 22.0477C1.42852 22.0477 0.0237885 20.6428 0.0237885 18.9047C0.0237885 17.1667 1.42852 15.762 3.16676 15.762H6.30937L6.30949 18.9047ZM7.88098 18.9047C7.88098 17.1667 9.2857 15.762 11.0238 15.762C12.762 15.762 14.1667 17.1667 14.1667 18.9048V26.7619C14.1667 28.5 12.762 29.9049 11.0237 29.9049C9.28582 29.9049 7.88098 28.5 7.88098 26.7619V18.9047Z" fill="#E01E5A"/>
<path d="M11.0238 6.2857C9.2857 6.2857 7.88086 4.88098 7.88086 3.14285C7.88086 1.40473 9.28582 0 11.0238 0C12.7618 0 14.1667 1.40473 14.1667 3.14285V6.28582L11.0238 6.2857ZM11.0238 7.88098C12.762 7.88098 14.1667 9.2857 14.1667 11.0238C14.1667 12.762 12.762 14.1667 11.0237 14.1667H3.14297C1.40473 14.1667 0 12.762 0 11.0237C0 9.28582 1.40473 7.88098 3.14285 7.88098H11.0238Z" fill="#36C5F0"/>
<path d="M23.6191 11.0238C23.6191 9.2857 25.0239 7.88086 26.7619 7.88086C28.4999 7.88086 29.9048 9.2857 29.9048 11.0238C29.9048 12.762 28.5 14.1667 26.7619 14.1667H23.6191V11.0238ZM22.0477 11.0238C22.0477 12.762 20.6428 14.1667 18.9047 14.1667C17.1667 14.1667 15.762 12.762 15.762 11.0237V3.14297C15.762 1.40473 17.1667 0 18.9047 0C20.6427 0 22.0475 1.40473 22.0475 3.14285L22.0477 11.0238Z" fill="#2EB67D"/>
<path d="M18.9047 23.6192C20.6428 23.6192 22.0477 25.0239 22.0477 26.7619C22.0477 28.4999 20.6428 29.9049 18.9047 29.9049C17.1667 29.9049 15.762 28.5 15.762 26.7619V23.6192H18.9047ZM18.9047 22.0477C17.1667 22.0477 15.762 20.6428 15.762 18.9047C15.762 17.1667 17.1667 15.762 18.9048 15.762H26.7857C28.5238 15.762 29.9286 17.1667 29.9286 18.9048C29.9286 20.6429 28.5238 22.0477 26.7857 22.0477H18.9047Z" fill="#ECB22E"/>
</g>
<defs>
<clipPath id="clip0_135_3373">
<rect width="30" height="30" fill="white"/>
</clipPath>
</defs>
</svg>
