<svg width="18" height="18" viewBox="0 0 18 18" fill="none" xmlns="http://www.w3.org/2000/svg">
<g id="Manage Leave">
<path id="Vector" d="M8.4375 11.25H5.0625C4.61495 11.25 4.18572 11.4278 3.86926 11.7443C3.55279 12.0607 3.375 12.4899 3.375 12.9375V14.0625H4.5V12.9375C4.5 12.7883 4.55926 12.6452 4.66475 12.5398C4.77024 12.4343 4.91332 12.375 5.0625 12.375H8.4375C8.58668 12.375 8.72976 12.4343 8.83525 12.5398C8.94074 12.6452 9 12.7883 9 12.9375V14.0625H10.125V12.9375C10.125 12.4899 9.94721 12.0607 9.63074 11.7443C9.31428 11.4278 8.88505 11.25 8.4375 11.25ZM6.75 10.6875C7.19501 10.6875 7.63002 10.5555 8.00003 10.3083C8.37004 10.0611 8.65843 9.70967 8.82873 9.29854C8.99903 8.8874 9.04358 8.43501 8.95677 7.99855C8.86995 7.56209 8.65566 7.16118 8.34099 6.84651C8.02632 6.53184 7.62541 6.31755 7.18895 6.23073C6.7525 6.14392 6.3001 6.18847 5.88896 6.35877C5.47783 6.52907 5.12643 6.81746 4.87919 7.18747C4.63196 7.55748 4.5 7.99249 4.5 8.4375C4.5 9.03424 4.73705 9.60653 5.15901 10.0285C5.58097 10.4504 6.15326 10.6875 6.75 10.6875ZM6.75 7.3125C6.9725 7.3125 7.19001 7.37848 7.37502 7.5021C7.56002 7.62571 7.70422 7.80142 7.78936 8.00698C7.87451 8.21255 7.89679 8.43875 7.85338 8.65698C7.80998 8.87521 7.70283 9.07566 7.5455 9.233C7.38816 9.39033 7.18771 9.49748 6.96948 9.54088C6.75125 9.58429 6.52505 9.56201 6.31948 9.47687C6.11391 9.39172 5.93821 9.24752 5.8146 9.06252C5.69098 8.87751 5.625 8.66001 5.625 8.4375C5.625 8.13913 5.74353 7.85298 5.9545 7.64201C6.16548 7.43103 6.45163 7.3125 6.75 7.3125Z" fill="#74706E"/>
<path id="Vector_2" d="M15.75 10.6875V15.75H2.25V4.5H9V3.375H2.25C1.95163 3.375 1.66548 3.49353 1.4545 3.7045C1.24353 3.91548 1.125 4.20163 1.125 4.5V15.75C1.125 16.0484 1.24353 16.3345 1.4545 16.5455C1.66548 16.7565 1.95163 16.875 2.25 16.875H15.75C16.0484 16.875 16.3345 16.7565 16.5455 16.5455C16.7565 16.3345 16.875 16.0484 16.875 15.75V10.6875H15.75Z" fill="#74706E"/>
<path id="Vector_3" d="M11.25 10.6875H14.625V11.8125H11.25V10.6875ZM12.375 12.9375H14.625V14.0625H12.375V12.9375ZM18 5.625V4.5H16.8182C16.7452 4.14802 16.6054 3.81329 16.4064 3.51394L17.2446 2.67581L16.4492 1.88044L15.6111 2.71856C15.3117 2.51956 14.977 2.37979 14.625 2.30681V1.125H13.5V2.30681C13.148 2.37979 12.8133 2.51956 12.5139 2.71856L11.6758 1.88044L10.8804 2.67581L11.7186 3.51394C11.5196 3.81329 11.3798 4.14802 11.3068 4.5H10.125V5.625H11.3068C11.3798 5.97698 11.5196 6.31171 11.7186 6.61106L10.8804 7.44919L11.6758 8.24456L12.5139 7.40644C12.8133 7.60544 13.148 7.74521 13.5 7.81819V9H14.625V7.81819C14.977 7.74521 15.3117 7.60544 15.6111 7.40644L16.4492 8.24456L17.2446 7.44919L16.4064 6.61106C16.6054 6.31171 16.7452 5.97698 16.8182 5.625H18ZM14.0625 6.75C13.7287 6.75 13.4025 6.65103 13.125 6.4656C12.8475 6.28018 12.6312 6.01663 12.5035 5.70828C12.3757 5.39993 12.3423 5.06063 12.4074 4.73329C12.4725 4.40594 12.6333 4.10526 12.8693 3.86926C13.1053 3.63326 13.4059 3.47254 13.7333 3.40742C14.0606 3.34231 14.3999 3.37573 14.7083 3.50345C15.0166 3.63118 15.2802 3.84747 15.4656 4.12498C15.651 4.40248 15.75 4.72874 15.75 5.0625C15.7496 5.50992 15.5716 5.93888 15.2552 6.25525C14.9389 6.57162 14.5099 6.74955 14.0625 6.75Z" fill="#74706E"/>
</g>
</svg>
