<svg width="18" height="18" viewBox="0 0 18 18" fill="none" xmlns="http://www.w3.org/2000/svg">
<g id="Manage Holiday">
<path id="Vector" d="M1.5 13.5V8.11875C1.5 7.91875 1.5375 7.72825 1.6125 7.54725C1.6875 7.36625 1.79375 7.20675 1.93125 7.06875L4.93125 4.06875C5.08125 3.91875 5.25 3.80625 5.4375 3.73125C5.625 3.65625 5.8125 3.61875 6 3.61875C6.1875 3.61875 6.375 3.65625 6.5625 3.73125C6.75 3.80625 6.91875 3.91875 7.06875 4.06875L10.0688 7.06875C10.2063 7.20625 10.3125 7.36575 10.3875 7.54725C10.4625 7.72875 10.5 7.91925 10.5 8.11875V13.5C10.5 13.9125 10.3533 14.2658 10.0597 14.5598C9.76625 14.8538 9.413 15.0005 9 15H3C2.5875 15 2.2345 14.8533 1.941 14.5598C1.6475 14.2663 1.5005 13.913 1.5 13.5ZM3 13.5H5.25V12C5.25 11.7875 5.322 11.6095 5.466 11.466C5.61 11.3225 5.788 11.2505 6 11.25C6.212 11.2495 6.39025 11.3215 6.53475 11.466C6.67925 11.6105 6.751 11.7885 6.75 12V13.5H9V8.11875L6 5.11875L3 8.11875V13.5ZM12 14.25V6.88125L9.39375 4.275C9.15625 4.0375 9.1 3.7655 9.225 3.459C9.35 3.1525 9.58125 2.9995 9.91875 3C10.0188 3 10.1187 3.022 10.2188 3.066C10.3188 3.11 10.4 3.163 10.4625 3.225L13.0687 5.83125C13.2062 5.96875 13.3125 6.12825 13.3875 6.30975C13.4625 6.49125 13.5 6.68175 13.5 6.88125V14.25C13.5 14.4625 13.428 14.6408 13.284 14.7848C13.14 14.9288 12.962 15.0005 12.75 15C12.538 14.9995 12.36 14.9275 12.216 14.784C12.072 14.6405 12 14.4625 12 14.25ZM15 14.25V5.64375L13.6312 4.275C13.3937 4.0375 13.3375 3.7655 13.4625 3.459C13.5875 3.1525 13.8188 2.9995 14.1562 3C14.2563 3 14.3562 3.022 14.4562 3.066C14.5562 3.11 14.6375 3.163 14.7 3.225L16.0687 4.59375C16.2062 4.73125 16.3125 4.89075 16.3875 5.07225C16.4625 5.25375 16.5 5.44425 16.5 5.64375V14.25C16.5 14.4625 16.428 14.6408 16.284 14.7848C16.14 14.9288 15.962 15.0005 15.75 15C15.538 14.9995 15.36 14.9275 15.216 14.784C15.072 14.6405 15 14.4625 15 14.25ZM6 9.75C5.7875 9.75 5.6095 9.678 5.466 9.534C5.3225 9.39 5.2505 9.212 5.25 9C5.2495 8.788 5.3215 8.61 5.466 8.466C5.6105 8.322 5.7885 8.25 6 8.25C6.2115 8.25 6.38975 8.322 6.53475 8.466C6.67975 8.61 6.7515 8.788 6.75 9C6.7485 9.212 6.6765 9.39025 6.534 9.53475C6.3915 9.67925 6.2135 9.751 6 9.75Z" fill="#74706E"/>
</g>
</svg>
