<svg width="18" height="18" viewBox="0 0 18 18" fill="none" xmlns="http://www.w3.org/2000/svg">
<g id="Monthly Attendance">
<path id="Vector" d="M9 13.659C9.6835 13.659 10.2582 13.4085 10.7242 12.9075C11.1902 12.4065 11.4232 11.806 11.4233 11.106V7.6725H10.6733V11.1053C10.6733 11.5948 10.5127 12.0175 10.1917 12.3735C9.87075 12.7295 9.4735 12.908 9 12.909C8.53 12.909 8.1335 12.7308 7.8105 12.3743C7.488 12.0183 7.32675 11.5955 7.32675 11.106V7.0095C7.32675 6.8105 7.38825 6.638 7.51125 6.492C7.63425 6.347 7.78925 6.2745 7.97625 6.2745C8.16525 6.2745 8.32075 6.347 8.44275 6.492C8.56475 6.637 8.6255 6.8095 8.625 7.0095V11.106H9.375V7.0095C9.375 6.6095 9.24175 6.262 8.97525 5.967C8.70875 5.672 8.3755 5.5245 7.9755 5.5245C7.5755 5.5245 7.2425 5.672 6.9765 5.967C6.7105 6.262 6.57725 6.6095 6.57675 7.0095V11.106C6.57675 11.806 6.8105 12.4065 7.278 12.9075C7.745 13.4085 8.319 13.659 9 13.659ZM3.75 15.75V2.25H11.0475L14.25 5.4525V15.75H3.75ZM4.5 15H13.5V5.8275H10.6725V3H4.5V15Z" fill="#74706E"/>
</g>
</svg>
