<svg width="15" height="15" viewBox="0 0 15 15" fill="none" xmlns="http://www.w3.org/2000/svg">
<g id="Group">
<path id="Vector" d="M1.25 1.25V0.875H0.875V1.25H1.25ZM8.4845 9.0155C8.55491 9.08591 8.65042 9.12547 8.75 9.12547C8.84958 9.12547 8.94508 9.08591 9.0155 9.0155C9.08591 8.94508 9.12547 8.84958 9.12547 8.75C9.12547 8.65042 9.08591 8.55491 9.0155 8.4845L8.4845 9.0155ZM1.625 7.25V1.25H0.875V7.25H1.625ZM1.25 1.625H7.25V0.875H1.25V1.625ZM0.9845 1.5155L8.4845 9.0155L9.0155 8.4845L1.5155 0.9845L0.9845 1.5155Z" fill="#74706E"/>
<path id="Vector_2" d="M2 10.25C2 11.6525 2 12.353 2.3015 12.875C2.49897 13.217 2.78299 13.501 3.125 13.6985C3.647 14 4.3475 14 5.75 14H9.5C11.621 14 12.6823 14 13.3408 13.3408C14 12.6823 14 11.621 14 9.5V5.75C14 4.3475 14 3.647 13.6985 3.125C13.501 2.78299 13.217 2.49897 12.875 2.3015C12.353 2 11.6525 2 10.25 2" stroke="#74706E" stroke-linecap="round"/>
</g>
</svg>
