<svg width="16" height="16" viewBox="0 0 16 16" fill="none" xmlns="http://www.w3.org/2000/svg">
<g clip-path="url(#clip0_46_1272)">
<path d="M9 3.5C9 3.36739 8.94732 3.24021 8.85355 3.14645C8.75979 3.05268 8.63261 3 8.5 3C8.36739 3 8.24021 3.05268 8.14645 3.14645C8.05268 3.24021 8 3.36739 8 3.5V7.5C8 7.63261 8.05268 7.75979 8.14645 7.85355C8.24021 7.94732 8.36739 8 8.5 8H11.5C11.6326 8 11.7598 7.94732 11.8536 7.85355C11.9473 7.75979 12 7.63261 12 7.5C12 7.36739 11.9473 7.24021 11.8536 7.14645C11.7598 7.05268 11.6326 7 11.5 7H9V3.5ZM5 0C4.20435 0 3.44129 0.316071 2.87868 0.87868C2.31607 1.44129 2 2.20435 2 3V7.104C2.325 7.01298 2.66379 6.98148 3 7.011V3C3 2.46957 3.21071 1.96086 3.58579 1.58579C3.96086 1.21071 4.46957 1 5 1H13C13.5304 1 14.0391 1.21071 14.4142 1.58579C14.7893 1.96086 15 2.46957 15 3V11C15 11.5304 14.7893 12.0391 14.4142 12.4142C14.0391 12.7893 13.5304 13 13 13H9.908C9.96867 13.2007 9.99933 13.409 10 13.625C9.99951 13.7504 9.99116 13.8756 9.975 14H13C13.7956 14 14.5587 13.6839 15.1213 13.1213C15.6839 12.5587 16 11.7956 16 11V3C16 2.20435 15.6839 1.44129 15.1213 0.87868C14.5587 0.316071 13.7956 0 13 0H5ZM2.75 11.5C2.97981 11.5 3.20738 11.4547 3.4197 11.3668C3.63202 11.2788 3.82493 11.1499 3.98744 10.9874C4.14994 10.8249 4.27884 10.632 4.36679 10.4197C4.45474 10.2074 4.5 9.97981 4.5 9.75C4.5 9.52019 4.45474 9.29262 4.36679 9.0803C4.27884 8.86798 4.14994 8.67507 3.98744 8.51256C3.82493 8.35006 3.63202 8.22116 3.4197 8.13321C3.20738 8.04527 2.97981 8 2.75 8C2.28587 8 1.84075 8.18437 1.51256 8.51256C1.18437 8.84075 1 9.28587 1 9.75C1 10.2141 1.18437 10.6592 1.51256 10.9874C1.84075 11.3156 2.28587 11.5 2.75 11.5ZM3 16C5.143 16 6 14.902 6 13.813C6 13.088 5.424 12.5 4.714 12.5H1.286C0.576 12.5 0 13.088 0 13.813C0 14.906 0.857 16 3 16ZM6.5 15.5H6.477C6.81953 15.0043 7.00205 14.4155 7 13.813C7 13.329 6.852 12.875 6.596 12.5H7.93C8.522 12.5 9.001 13.004 9.001 13.625C9.001 14.559 8.286 15.5 6.5 15.5ZM6.751 11.5C7.08252 11.5 7.40046 11.3683 7.63488 11.1339C7.8693 10.8995 8.001 10.5815 8.001 10.25C8.001 9.91848 7.8693 9.60054 7.63488 9.36612C7.40046 9.1317 7.08252 9 6.751 9C6.41948 9 6.10154 9.1317 5.86712 9.36612C5.6327 9.60054 5.501 9.91848 5.501 10.25C5.501 10.5815 5.6327 10.8995 5.86712 11.1339C6.10154 11.3683 6.41948 11.5 6.751 11.5Z" fill="#D17E00"/>
</g>
<defs>
<clipPath id="clip0_46_1272">
<rect width="16" height="16" fill="white"/>
</clipPath>
</defs>
</svg>
