<svg width="49" height="48" viewBox="0 0 49 48" fill="none" xmlns="http://www.w3.org/2000/svg">
<path d="M24.75 48C38.0048 48 48.75 37.2548 48.75 24C48.75 10.7452 38.0048 0 24.75 0C11.4952 0 0.75 10.7452 0.75 24C0.75 37.2548 11.4952 48 24.75 48Z" fill="#00A9CB"/>
<g clip-path="url(#clip0_31_2785)">
<path d="M29.25 18.9375C29.0469 18.9375 28.8711 18.8633 28.7227 18.7148C28.5742 18.5664 28.5 18.3906 28.5 18.1875C28.5 17.7891 28.5742 17.4062 28.7227 17.0391C28.8711 16.6719 29.0898 16.3477 29.3789 16.0664L30.3047 15.1289C30.6016 14.832 30.75 14.4766 30.75 14.0625C30.75 13.8594 30.8242 13.6836 30.9727 13.5352C31.1211 13.3867 31.2969 13.3125 31.5 13.3125C31.7031 13.3125 31.8789 13.3867 32.0273 13.5352C32.1758 13.6836 32.25 13.8594 32.25 14.0625C32.25 14.4609 32.1758 14.8438 32.0273 15.2109C31.8789 15.5781 31.6602 15.9023 31.3711 16.1836L30.4453 17.1211C30.1484 17.418 30 17.7734 30 18.1875C30 18.3906 29.9258 18.5664 29.7773 18.7148C29.6289 18.8633 29.4531 18.9375 29.25 18.9375ZM24.75 18.9375C24.5469 18.9375 24.3711 18.8633 24.2227 18.7148C24.0742 18.5664 24 18.3906 24 18.1875C24 17.7891 24.0742 17.4062 24.2227 17.0391C24.3711 16.6719 24.5898 16.3477 24.8789 16.0664L25.8047 15.1289C26.1016 14.832 26.25 14.4766 26.25 14.0625C26.25 13.8594 26.3242 13.6836 26.4727 13.5352C26.6211 13.3867 26.7969 13.3125 27 13.3125C27.2031 13.3125 27.3789 13.3867 27.5273 13.5352C27.6758 13.6836 27.75 13.8594 27.75 14.0625C27.75 14.4609 27.6758 14.8438 27.5273 15.2109C27.3789 15.5781 27.1602 15.9023 26.8711 16.1836L25.9453 17.1211C25.6484 17.418 25.5 17.7734 25.5 18.1875C25.5 18.3906 25.4258 18.5664 25.2773 18.7148C25.1289 18.8633 24.9531 18.9375 24.75 18.9375ZM34.5 21C34.8125 21 35.1055 21.0586 35.3789 21.1758C35.6523 21.293 35.8906 21.4531 36.0938 21.6562C36.2969 21.8594 36.457 22.0977 36.5742 22.3711C36.6914 22.6445 36.75 22.9375 36.75 23.25V27.75C36.75 28.0625 36.6914 28.3555 36.5742 28.6289C36.457 28.9023 36.2969 29.1406 36.0938 29.3438C35.8906 29.5469 35.6523 29.707 35.3789 29.8242C35.1055 29.9414 34.8125 30 34.5 30H33.832C33.8164 30.0547 33.8047 30.1055 33.7969 30.1523C33.7891 30.1992 33.7734 30.2461 33.75 30.293V30.75C33.75 31.2656 33.6523 31.75 33.457 32.2031C33.2617 32.6562 32.9922 33.0547 32.6484 33.3984C32.3047 33.7422 31.9062 34.0117 31.4531 34.207C31 34.4023 30.5156 34.5 30 34.5H25.5C24.8906 34.5 24.3281 34.3633 23.8125 34.0898C23.2969 33.8164 22.8672 33.4531 22.5234 33H16.6641C16.1484 33 15.6641 32.9023 15.2109 32.707C14.7578 32.5117 14.3594 32.2461 14.0156 31.9102C13.6719 31.5742 13.4023 31.1758 13.207 30.7148C13.0117 30.2539 12.9141 29.7656 12.9141 29.25V28.5H15.9141C15.9141 27.8828 16.0312 27.3008 16.2656 26.7539C16.5 26.207 16.8242 25.7305 17.2383 25.3242C17.6523 24.918 18.1289 24.5938 18.668 24.3516C19.207 24.1094 19.7891 23.9922 20.4141 24C20.6484 24 20.875 24.0195 21.0938 24.0586C21.3125 24.0977 21.5312 24.1523 21.75 24.2227V19.5H33.75V21H34.5ZM20.4141 25.5C20 25.5 19.6133 25.5781 19.2539 25.7344C18.8945 25.8906 18.5742 26.1055 18.293 26.3789C18.0117 26.6523 17.7969 26.9688 17.6484 27.3281C17.5 27.6875 17.4219 28.0781 17.4141 28.5H21.75V25.8281C21.5469 25.7266 21.3359 25.6484 21.1172 25.5938C20.8984 25.5391 20.6641 25.5078 20.4141 25.5ZM16.6641 31.5H21.832C21.7773 31.2734 21.75 31.0234 21.75 30.75V30H14.543C14.6211 30.2188 14.7305 30.418 14.8711 30.5977C15.0117 30.7773 15.1719 30.9375 15.3516 31.0781C15.5312 31.2188 15.7344 31.3203 15.9609 31.3828C16.1875 31.4453 16.4219 31.4844 16.6641 31.5ZM22.0898 32.2852V32.2969L22.1016 32.3203V32.3086L22.0898 32.2852ZM32.25 30.75V21H23.25V30.75C23.25 31.0625 23.3086 31.3555 23.4258 31.6289C23.543 31.9023 23.7031 32.1406 23.9062 32.3438C24.1094 32.5469 24.3477 32.707 24.6211 32.8242C24.8945 32.9414 25.1875 33 25.5 33H30C30.3125 33 30.6055 32.9414 30.8789 32.8242C31.1523 32.707 31.3906 32.5469 31.5938 32.3438C31.7969 32.1406 31.957 31.9023 32.0742 31.6289C32.1914 31.3555 32.25 31.0625 32.25 30.75ZM35.25 27.75V23.25C35.25 23.0469 35.1758 22.8711 35.0273 22.7227C34.8789 22.5742 34.7031 22.5 34.5 22.5H33.75V28.5H34.5C34.7031 28.5 34.8789 28.4258 35.0273 28.2773C35.1758 28.1289 35.25 27.9531 35.25 27.75Z" fill="white"/>
</g>
<defs>
<clipPath id="clip0_31_2785">
<rect width="24" height="24" fill="white" transform="translate(12.75 12)"/>
</clipPath>
</defs>
</svg>
