<svg width="18" height="18" viewBox="0 0 18 18" fill="none" xmlns="http://www.w3.org/2000/svg">
<g id="Group">
<path id="Vector" d="M13.3123 15.399C13.9363 15.399 14.5347 15.1511 14.976 14.7099M13.3123 15.399C12.6883 15.399 12.0899 15.1511 11.6487 14.7099M13.3123 15.399V17.1637M14.976 14.7099C15.4172 14.2687 15.6651 13.6702 15.6651 13.0462M14.976 14.7099L16.2238 15.9577M15.6651 13.0462C15.6651 12.4223 15.4172 11.8238 14.976 11.3826M15.6651 13.0462H17.4298M14.976 11.3826C14.5347 10.9414 13.9363 10.6935 13.3123 10.6935M14.976 11.3826L16.2238 10.1347M13.3123 10.6935C12.6883 10.6935 12.0899 10.9414 11.6487 11.3826M13.3123 10.6935V8.92874M11.6487 11.3826C11.2075 11.8238 10.9596 12.4223 10.9596 13.0462M11.6487 11.3826L10.4008 10.1347M10.9596 13.0462C10.9596 13.6702 11.2075 14.2687 11.6487 14.7099M10.9596 13.0462H9.19482M11.6487 14.7099L10.4008 15.9577M12.9201 8.92874H13.7046M15.9463 9.85799L16.5013 10.4122M17.4298 12.654V13.4385M16.5013 15.681L15.9463 16.2352M13.7046 17.1637H12.9201M10.6783 16.2352L10.1233 15.681M9.19482 13.4385V12.654M10.1233 10.4122L10.6783 9.85799M2.81982 5.33624V12.0862H6.19482" stroke="#74706E" stroke-width="1.5" stroke-linecap="round" stroke-linejoin="round"/>
<path id="Vector_2" d="M2.81982 9.83626L4.83657 7.81951C4.94105 7.71496 5.0651 7.63203 5.20164 7.57545C5.33818 7.51887 5.48453 7.48975 5.63232 7.48975C5.78012 7.48975 5.92647 7.51887 6.06301 7.57545C6.19955 7.63203 6.3236 7.71496 6.42807 7.81951L6.86382 8.25451C6.98472 8.37541 7.13158 8.46716 7.29325 8.5228C7.45492 8.57844 7.62714 8.5965 7.79683 8.5756C7.96653 8.55471 8.12922 8.49541 8.27257 8.40221C8.41591 8.30902 8.53612 8.18437 8.62407 8.03776L8.89182 7.58776" stroke="#74706E" stroke-width="1.5" stroke-linecap="round" stroke-linejoin="round"/>
<path id="Vector_3" d="M6.75732 15.4612H1.69482C1.39646 15.4612 1.11031 15.3427 0.899329 15.1317C0.688351 14.9208 0.569824 14.6346 0.569824 14.3362V1.96124C0.569824 1.66287 0.688351 1.37673 0.899329 1.16575C1.11031 0.954769 1.39646 0.836243 1.69482 0.836243H9.66657C9.96473 0.836306 10.2507 0.954729 10.4616 1.16549L12.6156 3.31949C12.8263 3.53039 12.9448 3.81633 12.9448 4.11449V5.89874" stroke="#74706E" stroke-width="1.5" stroke-linecap="round" stroke-linejoin="round"/>
</g>
</svg>
