<svg width="18" height="18" viewBox="0 0 18 18" fill="none" xmlns="http://www.w3.org/2000/svg">
<g id="Over Time Report">
<path id="Vector" d="M2.24414 8.682C2.24414 7.458 2.55014 6.324 3.15614 5.286C3.76214 4.248 4.58414 3.426 5.62214 2.82C6.66014 2.214 7.78814 1.914 9.00614 1.914C9.91814 1.914 10.7941 2.094 11.6281 2.448C12.4621 2.802 13.1761 3.288 13.7821 3.888C14.3881 4.488 14.8681 5.208 15.2221 6.048C15.5761 6.888 15.7561 7.758 15.7561 8.682C15.7561 9.594 15.5761 10.47 15.2221 11.304C14.8681 12.138 14.3821 12.858 13.7821 13.458C13.1821 14.058 12.4621 14.538 11.6281 14.892C10.7941 15.246 9.92414 15.426 9.00614 15.426C8.08814 15.426 7.20614 15.246 6.37214 14.892C5.53814 14.538 4.81814 14.052 4.21214 13.452C3.60614 12.852 3.13214 12.132 2.77214 11.304C2.41214 10.476 2.24414 9.6 2.24414 8.682ZM3.73214 8.682C3.73214 10.104 4.24814 11.34 5.28614 12.39C6.32414 13.428 7.56014 13.944 9.00614 13.944C9.95414 13.944 10.8361 13.71 11.6401 13.236C12.4441 12.762 13.0921 12.126 13.5661 11.316C14.0401 10.506 14.2801 9.63 14.2801 8.682C14.2801 7.734 14.0401 6.852 13.5661 6.042C13.0921 5.232 12.4501 4.59 11.6401 4.116C10.8301 3.642 9.95414 3.408 9.00614 3.408C8.05814 3.408 7.17614 3.642 6.37214 4.116C5.56814 4.59 4.92014 5.232 4.44014 6.042C3.96014 6.852 3.73214 7.734 3.73214 8.682ZM8.48414 8.682V4.686C8.48414 4.548 8.53214 4.428 8.62814 4.332C8.72414 4.236 8.84414 4.188 8.98214 4.188C9.11414 4.188 9.23414 4.236 9.33614 4.332C9.43814 4.428 9.48614 4.548 9.48614 4.686V6.804L9.93614 6.024C10.0081 5.904 10.1101 5.832 10.2481 5.796C10.3861 5.76 10.5121 5.778 10.6321 5.85C10.7521 5.916 10.8241 6.012 10.8661 6.15C10.9081 6.288 10.8901 6.408 10.8181 6.528L9.44414 8.874C9.36614 9.084 9.21614 9.192 8.98814 9.192C8.85014 9.192 8.73014 9.144 8.63414 9.048C8.53814 8.952 8.48414 8.826 8.48414 8.682Z" fill="#74706E"/>
</g>
</svg>
