<svg width="45" height="46" viewBox="0 0 45 46" fill="none" xmlns="http://www.w3.org/2000/svg">
<circle cx="22.5" cy="23" r="22.5" fill="#FFBE16" fill-opacity="0.1"/>
<g clip-path="url(#clip0_102_2849)">
<path d="M22.9993 10.1667C30.3633 10.1667 36.3327 16.1361 36.3327 23.5001C36.3327 30.8641 30.3633 36.8334 22.9993 36.8334C15.6353 36.8334 9.66602 30.8641 9.66602 23.5001C9.66602 16.1361 15.6353 10.1667 22.9993 10.1667ZM22.9993 12.8334C20.1704 12.8334 17.4573 13.9572 15.4569 15.9576C13.4565 17.958 12.3327 20.6711 12.3327 23.5001C12.3327 26.3291 13.4565 29.0422 15.4569 31.0426C17.4573 33.0429 20.1704 34.1667 22.9993 34.1667C25.8283 34.1667 28.5414 33.0429 30.5418 31.0426C32.5422 29.0422 33.666 26.3291 33.666 23.5001C33.666 20.6711 32.5422 17.958 30.5418 15.9576C28.5414 13.9572 25.8283 12.8334 22.9993 12.8334ZM22.9993 15.5001C23.3259 15.5001 23.6411 15.62 23.8852 15.837C24.1292 16.054 24.2851 16.3531 24.3233 16.6774L24.3327 16.8334V22.9481L27.942 26.5574C28.1811 26.7974 28.32 27.1193 28.3303 27.4579C28.3407 27.7965 28.2217 28.1264 27.9977 28.3805C27.7736 28.6345 27.4613 28.7938 27.124 28.8259C26.7868 28.8581 26.45 28.7606 26.182 28.5534L26.0567 28.4427L22.0567 24.4427C21.8495 24.2353 21.7164 23.9654 21.678 23.6747L21.666 23.5001V16.8334C21.666 16.4798 21.8065 16.1407 22.0565 15.8906C22.3066 15.6406 22.6457 15.5001 22.9993 15.5001Z" fill="#FFBE16"/>
</g>
<defs>
<clipPath id="clip0_102_2849">
<rect width="32" height="32" fill="white" transform="translate(7 7.5)"/>
</clipPath>
</defs>
</svg>
