<svg width="16" height="16" viewBox="0 0 16 16" fill="none" xmlns="http://www.w3.org/2000/svg">
<g clip-path="url(#clip0_46_1284)">
<path d="M8.1128 15L9.26791 16H0V2H4.62042C4.62042 1.72396 4.68058 1.46615 4.8009 1.22656C4.92123 0.986979 5.08667 0.773438 5.29724 0.585938C5.5078 0.398438 5.75146 0.255208 6.0282 0.15625C6.30494 0.0572917 6.60575 0.00520833 6.93063 0C7.24948 0 7.54728 0.0520833 7.82403 0.15625C8.10077 0.260417 8.34743 0.403646 8.56402 0.585938C8.7806 0.768229 8.94604 0.979167 9.06035 1.21875C9.17466 1.45833 9.23482 1.71875 9.24084 2H13.8613V10.0234L12.7061 11.0234V3H11.551V5H2.31021V3H1.1551V15H8.1128ZM3.46531 3V4H10.3959V3H8.08573V2C8.08573 1.85938 8.05565 1.72917 7.99549 1.60938C7.93533 1.48958 7.85411 1.38542 7.75183 1.29688C7.64956 1.20833 7.52623 1.13542 7.38184 1.07812C7.23745 1.02083 7.08705 0.994792 6.93063 1C6.76819 1 6.61779 1.02604 6.47941 1.07812C6.34104 1.13021 6.22072 1.20052 6.11844 1.28906C6.01617 1.3776 5.93194 1.48438 5.86576 1.60938C5.79959 1.73438 5.76951 1.86458 5.77552 2V3H3.46531ZM16 11.3516L10.9735 15.7109L8.54597 13.6016L9.35815 12.8984L10.9735 14.2891L15.1878 10.6484L16 11.3516Z" fill="#00AFD2"/>
</g>
<defs>
<clipPath id="clip0_46_1284">
<rect width="16" height="16" fill="white"/>
</clipPath>
</defs>
</svg>
