<svg width="45" height="46" viewBox="0 0 45 46" fill="none" xmlns="http://www.w3.org/2000/svg">
<circle cx="22.5" cy="23" r="22.5" fill="#FF0000" fill-opacity="0.1"/>
<path d="M22.9993 34.1666C17.1193 34.1666 12.3327 29.38 12.3327 23.5C12.3327 17.62 17.1193 12.8333 22.9993 12.8333C28.8793 12.8333 33.666 17.62 33.666 23.5C33.666 29.38 28.8793 34.1666 22.9993 34.1666ZM22.9993 10.1666C15.626 10.1666 9.66602 16.1266 9.66602 23.5C9.66602 30.8733 15.626 36.8333 22.9993 36.8333C30.3727 36.8333 36.3327 30.8733 36.3327 23.5C36.3327 16.1266 30.3727 10.1666 22.9993 10.1666ZM26.4527 18.1666L22.9993 21.62L19.546 18.1666L17.666 20.0466L21.1193 23.5L17.666 26.9533L19.546 28.8333L22.9993 25.38L26.4527 28.8333L28.3327 26.9533L24.8793 23.5L28.3327 20.0466L26.4527 18.1666Z" fill="#FF0000"/>
</svg>
