<svg width="45" height="46" viewBox="0 0 45 46" fill="none" xmlns="http://www.w3.org/2000/svg">
<circle cx="22.5" cy="23" r="22.5" fill="#2600BE" fill-opacity="0.1"/>
<g clip-path="url(#clip0_102_2859)">
<path d="M21 11.5C17.146 11.5 14 14.646 14 18.5C14 20.91 15.23 23.052 17.094 24.313C13.527 25.843 11 29.38 11 33.5H13C13 29.07 16.57 25.5 21 25.5C22.376 25.5 23.654 25.858 24.78 26.47C23.628 27.8933 22.9997 29.6689 23 31.5C23 35.906 26.594 39.5 31 39.5C35.406 39.5 39 35.906 39 31.5C39 27.094 35.406 23.5 31 23.5C29.315 23.5023 27.6739 24.0378 26.312 25.03C25.87 24.753 25.392 24.52 24.906 24.312C25.8577 23.6702 26.6375 22.8047 27.1769 21.7914C27.7163 20.7781 27.9989 19.6479 28 18.5C28 14.646 24.854 11.5 21 11.5ZM21 13.5C23.773 13.5 26 15.727 26 18.5C26 21.273 23.773 23.5 21 23.5C18.227 23.5 16 21.273 16 18.5C16 15.727 18.227 13.5 21 13.5ZM31 25.5C34.326 25.5 37 28.174 37 31.5C37 34.826 34.326 37.5 31 37.5C27.674 37.5 25 34.826 25 31.5C25 28.174 27.674 25.5 31 25.5ZM30 27.5V30.5H27V32.5H30V35.5H32V32.5H35V30.5H32V27.5H30Z" fill="#2600BE"/>
</g>
<defs>
<clipPath id="clip0_102_2859">
<rect width="32" height="32" fill="white" transform="translate(7 7.5)"/>
</clipPath>
</defs>
</svg>
