<svg width="16" height="16" viewBox="0 0 16 16" fill="none" xmlns="http://www.w3.org/2000/svg">
<path d="M16 3.423V16H0V0H12.577L16 3.423ZM7.996 12.538C8.55 12.538 9.02233 12.344 9.413 11.956C9.80367 11.568 9.99933 11.097 10 10.543C10.0007 9.989 9.80667 9.51633 9.418 9.125C9.02933 8.73367 8.55833 8.53833 8.005 8.539C7.45167 8.53967 6.97867 8.73333 6.586 9.12C6.19333 9.50667 5.998 9.97833 6 10.535C6.002 11.0917 6.196 11.5643 6.582 11.953C6.968 12.3417 7.43933 12.5373 7.996 12.54M2.769 5.77H10.192V2.77H2.77L2.769 5.77Z" fill="#005BC4"/>
</svg>
