<svg width="18" height="18" viewBox="0 0 18 18" fill="none" xmlns="http://www.w3.org/2000/svg">
<g id="Settings">
<path id="Vector" d="M15.1877 9.4275V8.56687L16.2677 7.62187C16.4668 7.4464 16.5974 7.2062 16.6365 6.94372C16.6757 6.68125 16.6207 6.41339 16.4815 6.1875L15.154 3.9375C15.0553 3.76665 14.9135 3.62474 14.7427 3.52601C14.5719 3.42728 14.3781 3.3752 14.1808 3.375C14.0586 3.37406 13.937 3.39306 13.8208 3.43125L12.454 3.8925C12.2183 3.73517 11.9721 3.59421 11.7171 3.47062L11.4302 2.05312C11.3788 1.79415 11.2379 1.56152 11.0322 1.39596C10.8265 1.23039 10.5692 1.14244 10.3052 1.1475H7.6727C7.40872 1.14244 7.15137 1.23039 6.9457 1.39596C6.74003 1.56152 6.59914 1.79415 6.5477 2.05312L6.26083 3.47062C6.00431 3.59474 5.75627 3.73567 5.51833 3.8925L4.17958 3.40875C4.06218 3.37816 3.94061 3.36677 3.81958 3.375C3.6223 3.3752 3.42853 3.42728 3.25773 3.52601C3.08693 3.62474 2.94509 3.76665 2.84645 3.9375L1.51895 6.1875C1.38766 6.41306 1.33887 6.67724 1.38094 6.93482C1.42302 7.19239 1.55333 7.42732 1.74958 7.59937L2.8127 8.5725V9.43312L1.74958 10.3781C1.54779 10.5514 1.41391 10.7905 1.37169 11.0531C1.32947 11.3157 1.38164 11.5847 1.51895 11.8125L2.84645 14.0625C2.94509 14.2334 3.08693 14.3753 3.25773 14.474C3.42853 14.5727 3.6223 14.6248 3.81958 14.625C3.94184 14.6259 4.06343 14.6069 4.17958 14.5687L5.54645 14.1075C5.78213 14.2648 6.02833 14.4058 6.28333 14.5294L6.5702 15.9469C6.62164 16.2058 6.76253 16.4385 6.9682 16.604C7.17387 16.7696 7.43122 16.8576 7.6952 16.8525H10.3502C10.6142 16.8576 10.8715 16.7696 11.0772 16.604C11.2829 16.4385 11.4238 16.2058 11.4752 15.9469L11.7621 14.5294C12.0186 14.4053 12.2666 14.2643 12.5046 14.1075L13.8658 14.5687C13.982 14.6069 14.1036 14.6259 14.2258 14.625C14.4231 14.6248 14.6169 14.5727 14.7877 14.474C14.9585 14.3753 15.1003 14.2334 15.199 14.0625L16.4815 11.8125C16.6127 11.5869 16.6615 11.3228 16.6195 11.0652C16.5774 10.8076 16.4471 10.5727 16.2508 10.4006L15.1877 9.4275ZM14.1808 13.5L12.2515 12.8475C11.7995 13.2297 11.2834 13.5287 10.7271 13.7306L10.3277 15.75H7.6727L7.27333 13.7531C6.72137 13.5455 6.20804 13.247 5.75458 12.87L3.81958 13.5L2.49208 11.25L4.02208 9.9C3.91807 9.31773 3.91807 8.72164 4.02208 8.13937L2.49208 6.75L3.81958 4.5L5.74895 5.1525C6.20088 4.77033 6.717 4.47133 7.27333 4.26938L7.6727 2.25H10.3277L10.7271 4.24688C11.279 4.4545 11.7924 4.75299 12.2458 5.13L14.1808 4.5L15.5083 6.75L13.9783 8.1C14.0823 8.68227 14.0823 9.27836 13.9783 9.86063L15.5083 11.25L14.1808 13.5Z" fill="#74706E"/>
<path id="Vector_2" d="M9 12.375C8.33249 12.375 7.67997 12.1771 7.12495 11.8062C6.56994 11.4354 6.13735 10.9083 5.88191 10.2916C5.62646 9.67486 5.55963 8.99626 5.68985 8.34157C5.82008 7.68689 6.14151 7.08552 6.61352 6.61352C7.08552 6.14151 7.68689 5.82008 8.34157 5.68985C8.99626 5.55963 9.67486 5.62646 10.2916 5.88191C10.9083 6.13735 11.4354 6.56994 11.8062 7.12495C12.1771 7.67997 12.375 8.33249 12.375 9C12.3795 9.44447 12.2953 9.88537 12.1273 10.2969C11.9593 10.7084 11.7108 11.0822 11.3965 11.3965C11.0822 11.7108 10.7084 11.9593 10.2969 12.1273C9.88537 12.2953 9.44447 12.3795 9 12.375ZM9 6.75C8.70263 6.74307 8.40695 6.79654 8.13084 6.90716C7.85472 7.01778 7.60391 7.18326 7.39359 7.39359C7.18326 7.60391 7.01778 7.85472 6.90716 8.13084C6.79654 8.40695 6.74307 8.70263 6.75 9C6.74307 9.29737 6.79654 9.59305 6.90716 9.86917C7.01778 10.1453 7.18326 10.3961 7.39359 10.6064C7.60391 10.8167 7.85472 10.9822 8.13084 11.0928C8.40695 11.2035 8.70263 11.2569 9 11.25C9.29737 11.2569 9.59305 11.2035 9.86917 11.0928C10.1453 10.9822 10.3961 10.8167 10.6064 10.6064C10.8167 10.3961 10.9822 10.1453 11.0928 9.86917C11.2035 9.59305 11.2569 9.29737 11.25 9C11.2569 8.70263 11.2035 8.40695 11.0928 8.13084C10.9822 7.85472 10.8167 7.60391 10.6064 7.39359C10.3961 7.18326 10.1453 7.01778 9.86917 6.90716C9.59305 6.79654 9.29737 6.74307 9 6.75Z" fill="#74706E"/>
</g>
</svg>
