<svg width="18" height="18" viewBox="0 0 18 18" fill="none" xmlns="http://www.w3.org/2000/svg">
<g id="Shift Time Report">
<path id="Vector" d="M8.99733 2.4363C9.01543 2.61436 8.96208 2.79232 8.849 2.93105C8.73593 3.06978 8.57238 3.15793 8.39433 3.1761C7.29384 3.29055 6.2483 3.71446 5.37883 4.39871C4.50936 5.08297 3.85156 5.99956 3.48162 7.04231C3.11168 8.08506 3.04475 9.21128 3.28858 10.2905C3.53242 11.3697 4.07703 12.3578 4.85934 13.1402C5.64165 13.9226 6.62962 14.4674 7.70881 14.7113C8.788 14.9553 9.91423 14.8886 10.957 14.5188C11.9998 14.149 12.9165 13.4913 13.6009 12.6219C14.2853 11.7526 14.7093 10.7071 14.8239 9.6066C14.8317 9.51743 14.8571 9.43069 14.8987 9.35143C14.9403 9.27218 14.9973 9.20199 15.0663 9.14495C15.1353 9.08791 15.2149 9.04517 15.3006 9.0192C15.3862 8.99323 15.4762 8.98456 15.5652 8.99369C15.6543 9.00283 15.7406 9.02958 15.8192 9.07239C15.8978 9.1152 15.9671 9.17322 16.0231 9.24307C16.0791 9.31293 16.1206 9.39321 16.1453 9.47926C16.1699 9.56531 16.1772 9.6554 16.1667 9.7443C16.0261 11.0988 15.5046 12.3857 14.6625 13.4559C13.8205 14.5261 12.6924 15.3357 11.409 15.7911C10.1257 16.2464 8.73953 16.3287 7.41128 16.0285C6.08304 15.7282 4.86706 15.0578 3.90427 14.0948C2.94147 13.1318 2.27128 11.9156 1.97137 10.5873C1.67145 9.259 1.75408 7.87289 2.20969 6.58962C2.66529 5.30634 3.47522 4.17845 4.54561 3.33664C5.616 2.49484 6.90302 1.97359 8.25753 1.8333C8.43559 1.81519 8.61355 1.86854 8.75228 1.98162C8.89101 2.0947 8.97915 2.25825 8.99733 2.4363ZM9.91533 2.3769C9.93594 2.29058 9.97337 2.20917 10.0255 2.13733C10.0776 2.0655 10.1433 2.00464 10.219 1.95824C10.2946 1.91185 10.3787 1.88083 10.4664 1.86696C10.554 1.85308 10.6435 1.85663 10.7298 1.8774C11.0706 1.959 11.4015 2.064 11.7225 2.1924C11.8843 2.26177 12.0125 2.39155 12.0799 2.5541C12.1474 2.71665 12.1486 2.8991 12.0835 3.06258C12.0184 3.22606 11.892 3.35764 11.7312 3.42928C11.5705 3.50092 11.3881 3.50695 11.223 3.4461C10.962 3.3423 10.6926 3.2571 10.4148 3.1905C10.2409 3.14867 10.0906 3.03947 9.99712 2.88691C9.90362 2.73434 9.87363 2.5509 9.91533 2.3769ZM15.8085 6.2766C15.7423 6.11023 15.6127 5.97699 15.4482 5.90618C15.2837 5.83538 15.0978 5.83281 14.9315 5.89905C14.7651 5.96529 14.6319 6.0949 14.5611 6.25938C14.4903 6.42386 14.4877 6.60973 14.5539 6.7761C14.6577 7.0377 14.7432 7.3071 14.8104 7.5843C14.8522 7.75843 14.9614 7.90883 15.1141 8.00242C15.1897 8.04876 15.2737 8.07976 15.3612 8.09365C15.4488 8.10753 15.5383 8.10403 15.6245 8.08335C15.7107 8.06267 15.792 8.0252 15.8637 7.9731C15.9355 7.921 15.9963 7.85527 16.0426 7.77968C16.0889 7.70409 16.1199 7.62011 16.1338 7.53254C16.1477 7.44497 16.1442 7.35552 16.1235 7.2693C16.0426 6.93123 15.9374 6.59946 15.8085 6.2766ZM12.861 3.5334C12.9786 3.39844 13.145 3.3157 13.3235 3.30338C13.5021 3.29106 13.6782 3.35017 13.8132 3.4677C14.0898 3.7083 14.3472 3.9684 14.5854 4.248C14.7014 4.38441 14.7585 4.56132 14.7441 4.73981C14.7296 4.9183 14.6449 5.08374 14.5085 5.19975C14.3721 5.31576 14.1952 5.37282 14.0167 5.35839C13.8382 5.34396 13.6727 5.25921 13.5567 5.1228C13.3621 4.89572 13.1516 4.68278 12.9267 4.4856C12.7918 4.36803 12.709 4.20167 12.6967 4.0231C12.6844 3.84454 12.7435 3.66839 12.861 3.5334ZM9.00003 5.175C9.00003 4.99598 8.92891 4.82429 8.80232 4.6977C8.67574 4.57112 8.50405 4.5 8.32503 4.5C8.14601 4.5 7.97432 4.57112 7.84773 4.6977C7.72114 4.82429 7.65003 4.99598 7.65003 5.175V9.675C7.65003 10.0485 7.95243 10.35 8.32503 10.35H11.025C11.204 10.35 11.3757 10.2789 11.5023 10.1523C11.6289 10.0257 11.7 9.85402 11.7 9.675C11.7 9.49598 11.6289 9.32429 11.5023 9.1977C11.3757 9.07112 11.204 9 11.025 9H9.00003V5.175Z" fill="#74706E"/>
</g>
</svg>
