<svg width="24" height="24" viewBox="0 0 24 24" fill="none" xmlns="http://www.w3.org/2000/svg">
<path d="M6.1436 5.2614C6.06349 5.17965 5.96806 5.1145 5.86275 5.06966C5.75745 5.02481 5.64434 5.00116 5.52989 5.00004C5.41544 4.99893 5.30189 5.02038 5.19574 5.06316C5.08958 5.10595 4.99289 5.16923 4.9112 5.2494C3.98741 6.16829 3.25458 7.2609 2.75494 8.46428C2.2553 9.66766 1.99873 10.958 2 12.261C1.99865 13.614 2.27532 14.9528 2.81285 16.1945C3.35038 17.4361 4.1373 18.5541 5.1248 19.479C5.29103 19.6327 5.5106 19.7155 5.73689 19.7099C5.96319 19.7043 6.17839 19.6107 6.3368 19.449C6.716 19.0698 6.6692 18.4662 6.3044 18.117C5.5118 17.3616 4.88107 16.453 4.45055 15.4463C4.02002 14.4396 3.79869 13.3559 3.8 12.261C3.8 10.0458 4.6892 8.037 6.1316 6.5754C6.4796 6.2214 6.5156 5.6334 6.1436 5.2614ZM8.2568 7.377C8.09876 7.21438 7.88271 7.12105 7.65597 7.11745C7.42924 7.11385 7.21033 7.20028 7.0472 7.3578C6.39778 7.99842 5.88232 8.76187 5.53085 9.60366C5.17939 10.4455 4.99893 11.3488 5 12.261C5 14.2914 5.87601 16.1166 7.27161 17.379C7.43645 17.5244 7.65091 17.6007 7.87053 17.5922C8.09014 17.5837 8.29807 17.491 8.4512 17.3334C8.8448 16.9398 8.77161 16.3206 8.402 15.9726C7.89555 15.4962 7.4921 14.9211 7.21656 14.2827C6.94103 13.6444 6.79926 12.9563 6.8 12.261C6.8 10.881 7.3484 9.6282 8.24 8.709C8.5832 8.3562 8.63961 7.7586 8.2568 7.377ZM14.9432 7.3758C15.1012 7.21318 15.3173 7.11985 15.544 7.11625C15.7708 7.11265 15.9897 7.19908 16.1528 7.3566C16.8024 7.99736 17.3179 8.761 17.6694 9.60301C18.0209 10.445 18.2012 11.3486 18.2 12.261C18.2 14.2914 17.324 16.1166 15.9284 17.379C15.7636 17.5244 15.5491 17.6007 15.3295 17.5922C15.1099 17.5837 14.9019 17.491 14.7488 17.3334C14.3552 16.9398 14.4284 16.3206 14.798 15.9726C15.3045 15.4962 15.7079 14.9211 15.9834 14.2827C16.259 13.6444 16.4007 12.9563 16.4 12.261C16.4 10.881 15.8516 9.6282 14.96 8.709C14.6168 8.3562 14.5604 7.7574 14.9432 7.3758ZM17.0564 5.2614C17.1365 5.17965 17.232 5.1145 17.3373 5.06966C17.4426 5.02481 17.5557 5.00116 17.6701 5.00004C17.7846 4.99893 17.8981 5.02038 18.0043 5.06316C18.1104 5.10595 18.2071 5.16923 18.2888 5.2494C19.2126 6.16829 19.9454 7.2609 20.4451 8.46428C20.9447 9.66766 21.2013 10.958 21.2 12.261C21.2014 13.614 20.9247 14.9528 20.3872 16.1945C19.8496 17.4361 19.0627 18.5541 18.0752 19.479C17.909 19.6327 17.6894 19.7155 17.4631 19.7099C17.2368 19.7043 17.0216 19.6107 16.8632 19.449C16.484 19.0698 16.5308 18.4662 16.8968 18.117C17.6892 17.3615 18.3197 16.4528 18.75 15.4462C19.1803 14.4395 19.4015 13.3558 19.4 12.261C19.4 10.0458 18.5108 8.037 17.0684 6.5754C16.7204 6.2214 16.6844 5.6334 17.0564 5.2614ZM11.6 10.461C11.1226 10.461 10.6648 10.6506 10.3272 10.9882C9.98965 11.3258 9.8 11.7836 9.8 12.261C9.8 12.7384 9.98965 13.1962 10.3272 13.5338C10.6648 13.8714 11.1226 14.061 11.6 14.061C12.0774 14.061 12.5352 13.8714 12.8728 13.5338C13.2104 13.1962 13.4 12.7384 13.4 12.261C13.4 11.7836 13.2104 11.3258 12.8728 10.9882C12.5352 10.6506 12.0774 10.461 11.6 10.461Z" fill="#005BC4"/>
</svg>
