<svg width="26" height="26" viewBox="0 0 26 26" fill="none" xmlns="http://www.w3.org/2000/svg">
<path d="M13 5.28125C13.6731 5.28125 14.2188 4.7356 14.2188 4.0625C14.2188 3.3894 13.6731 2.84375 13 2.84375C12.3269 2.84375 11.7812 3.3894 11.7812 4.0625C11.7812 4.7356 12.3269 5.28125 13 5.28125Z" stroke="#005BC4" stroke-width="1.5" stroke-linecap="round" stroke-linejoin="round"/>
<path d="M13 14.2188C13.6731 14.2188 14.2188 13.6731 14.2188 13C14.2188 12.3269 13.6731 11.7812 13 11.7812C12.3269 11.7812 11.7812 12.3269 11.7812 13C11.7812 13.6731 12.3269 14.2188 13 14.2188Z" stroke="#005BC4" stroke-width="1.5" stroke-linecap="round" stroke-linejoin="round"/>
<path d="M13 23.1562C13.6731 23.1562 14.2188 22.6106 14.2188 21.9375C14.2188 21.2644 13.6731 20.7188 13 20.7188C12.3269 20.7188 11.7812 21.2644 11.7812 21.9375C11.7812 22.6106 12.3269 23.1562 13 23.1562Z" stroke="#005BC4" stroke-width="1.5" stroke-linecap="round" stroke-linejoin="round"/>
</svg>
