<svg width="49" height="48" viewBox="0 0 49 48" fill="none" xmlns="http://www.w3.org/2000/svg">
<path d="M24.5 48C37.7548 48 48.5 37.2548 48.5 24C48.5 10.7452 37.7548 0 24.5 0C11.2452 0 0.5 10.7452 0.5 24C0.5 37.2548 11.2452 48 24.5 48Z" fill="url(#paint0_linear_31_2720)"/>
<g clip-path="url(#clip0_31_2720)">
<path d="M26 17.25C26 17.0511 25.921 16.8603 25.7803 16.7197C25.6397 16.579 25.4489 16.5 25.25 16.5C25.0511 16.5 24.8603 16.579 24.7197 16.7197C24.579 16.8603 24.5 17.0511 24.5 17.25V23.25C24.5 23.4489 24.579 23.6397 24.7197 23.7803C24.8603 23.921 25.0511 24 25.25 24H29.75C29.9489 24 30.1397 23.921 30.2803 23.7803C30.421 23.6397 30.5 23.4489 30.5 23.25C30.5 23.0511 30.421 22.8603 30.2803 22.7197C30.1397 22.579 29.9489 22.5 29.75 22.5H26V17.25ZM20 12C18.8065 12 17.6619 12.4741 16.818 13.318C15.9741 14.1619 15.5 15.3065 15.5 16.5V22.656C15.9875 22.5195 16.4957 22.4722 17 22.5165V16.5C17 15.7044 17.3161 14.9413 17.8787 14.3787C18.4413 13.8161 19.2044 13.5 20 13.5H32C32.7956 13.5 33.5587 13.8161 34.1213 14.3787C34.6839 14.9413 35 15.7044 35 16.5V28.5C35 29.2956 34.6839 30.0587 34.1213 30.6213C33.5587 31.1839 32.7956 31.5 32 31.5H27.362C27.453 31.801 27.499 32.1135 27.5 32.4375C27.4993 32.6256 27.4867 32.8135 27.4625 33H32C33.1935 33 34.3381 32.5259 35.182 31.682C36.0259 30.8381 36.5 29.6935 36.5 28.5V16.5C36.5 15.3065 36.0259 14.1619 35.182 13.318C34.3381 12.4741 33.1935 12 32 12H20ZM16.625 29.25C16.9697 29.25 17.3111 29.1821 17.6295 29.0502C17.948 28.9183 18.2374 28.7249 18.4812 28.4812C18.7249 28.2374 18.9183 27.948 19.0502 27.6295C19.1821 27.3111 19.25 26.9697 19.25 26.625C19.25 26.2803 19.1821 25.9389 19.0502 25.6205C18.9183 25.302 18.7249 25.0126 18.4812 24.7688C18.2374 24.5251 17.948 24.3317 17.6295 24.1998C17.3111 24.0679 16.9697 24 16.625 24C15.9288 24 15.2611 24.2766 14.7688 24.7688C14.2766 25.2611 14 25.9288 14 26.625C14 27.3212 14.2766 27.9889 14.7688 28.4812C15.2611 28.9734 15.9288 29.25 16.625 29.25ZM17 36C20.2145 36 21.5 34.353 21.5 32.7195C21.5 31.632 20.636 30.75 19.571 30.75H14.429C13.364 30.75 12.5 31.632 12.5 32.7195C12.5 34.359 13.7855 36 17 36ZM22.25 35.25H22.2155C22.7293 34.5064 23.0031 33.6233 23 32.7195C23 31.9935 22.778 31.3125 22.394 30.75H24.395C25.283 30.75 26.0015 31.506 26.0015 32.4375C26.0015 33.8385 24.929 35.25 22.25 35.25ZM22.6265 29.25C23.1238 29.25 23.6007 29.0525 23.9523 28.7008C24.304 28.3492 24.5015 27.8723 24.5015 27.375C24.5015 26.8777 24.304 26.4008 23.9523 26.0492C23.6007 25.6975 23.1238 25.5 22.6265 25.5C22.1292 25.5 21.6523 25.6975 21.3007 26.0492C20.949 26.4008 20.7515 26.8777 20.7515 27.375C20.7515 27.8723 20.949 28.3492 21.3007 28.7008C21.6523 29.0525 22.1292 29.25 22.6265 29.25Z" fill="white"/>
</g>
<defs>
<linearGradient id="paint0_linear_31_2720" x1="8.44287" y1="7" x2="37.9429" y2="43" gradientUnits="userSpaceOnUse">
<stop stop-color="#5E72E4"/>
<stop offset="1" stop-color="#825EE4"/>
</linearGradient>
<clipPath id="clip0_31_2720">
<rect width="24" height="24" fill="white" transform="translate(12.5 12)"/>
</clipPath>
</defs>
</svg>
