<svg width="20" height="22" viewBox="0 0 22 22" fill="none" xmlns="http://www.w3.org/2000/svg">
<path d="M15.857 14.49C16.5659 14.1421 17.3774 13.944 18.2416 13.944H18.2445C18.3324 13.944 18.3734 13.8477 18.3089 13.7942C17.4102 13.0573 16.3836 12.4622 15.2711 12.0331C15.2594 12.0277 15.2477 12.0251 15.236 12.0197C17.0551 10.8127 18.2386 8.85085 18.2386 6.63747C18.2386 2.9708 14.9928 0 10.9883 0C6.9838 0 3.74094 2.9708 3.74094 6.63747C3.74094 8.85085 4.92442 10.8127 6.74652 12.0197C6.7348 12.0251 6.72309 12.0277 6.71137 12.0331C5.40192 12.5389 4.22722 13.2642 3.21657 14.1903C2.21175 15.1066 1.41179 16.1929 0.861322 17.3886C0.319711 18.5594 0.0274091 19.8138 7.3253e-05 21.0847C-0.000708623 21.1132 0.00477533 21.1417 0.0162021 21.1683C0.0276289 21.1949 0.0447673 21.2191 0.0666074 21.2395C0.0884474 21.26 0.114547 21.2762 0.143369 21.2873C0.172191 21.2984 0.203152 21.3041 0.234427 21.3041H1.98915C2.11511 21.3041 2.22057 21.2105 2.2235 21.0954C2.28209 19.0292 3.18728 17.0942 4.78967 15.6275C6.44479 14.11 8.64771 13.2749 10.9912 13.2749C12.6522 13.2749 14.2458 13.6951 15.6197 14.482C15.655 14.5023 15.6955 14.5137 15.7372 14.5151C15.7788 14.5165 15.8202 14.5078 15.857 14.49ZM10.9912 11.2409C9.64958 11.2409 8.387 10.7618 7.43493 9.89197C6.96651 9.46511 6.59515 8.95779 6.34226 8.39923C6.08937 7.84068 5.95994 7.24192 5.96144 6.63747C5.96144 5.409 6.4858 4.2528 7.43493 3.38297C8.38407 2.51314 9.64665 2.03406 10.9912 2.03406C12.3359 2.03406 13.5955 2.51314 14.5476 3.38297C15.016 3.80983 15.3873 4.31715 15.6402 4.87571C15.8931 5.43426 16.0226 6.03301 16.0211 6.63747C16.0211 7.86594 15.4967 9.02214 14.5476 9.89197C13.5955 10.7618 12.3329 11.2409 10.9912 11.2409ZM21.7656 17.6107H19.3049V15.3625C19.3049 15.2448 19.1995 15.1484 19.0706 15.1484H17.4301C17.3012 15.1484 17.1958 15.2448 17.1958 15.3625V17.6107H14.735C14.6061 17.6107 14.5007 17.7071 14.5007 17.8248V19.3236C14.5007 19.4414 14.6061 19.5377 14.735 19.5377H17.1958V21.7859C17.1958 21.9036 17.3012 22 17.4301 22H19.0706C19.1995 22 19.3049 21.9036 19.3049 21.7859V19.5377H21.7656C21.8945 19.5377 22 19.4414 22 19.3236V17.8248C22 17.7071 21.8945 17.6107 21.7656 17.6107Z" fill="#003FB6"/>
</svg>
