<svg width="17" height="12" viewBox="0 0 17 12" fill="none" xmlns="http://www.w3.org/2000/svg">
<g id="Video">
<path id="Stroke 1" fill-rule="evenodd" clip-rule="evenodd" d="M12.2227 8.65373C12.2834 10.0278 11.1744 11.1897 9.74602 11.2481C9.64081 11.2525 4.51154 11.2422 4.51154 11.2422C3.09003 11.3501 1.84592 10.3286 1.7338 8.95973C1.72535 8.85773 1.72766 3.35414 1.72766 3.35414C1.66468 1.97862 2.77209 0.813741 4.20128 0.753132C4.30803 0.747958 9.43039 0.757567 9.43039 0.757567C10.8588 0.651132 12.1068 1.68001 12.2173 3.05553C12.225 3.15458 12.2227 8.65373 12.2227 8.65373Z" stroke="#74706E" stroke-width="1.5" stroke-linecap="round" stroke-linejoin="round"/>
<path id="Stroke 3" d="M12.2251 4.48488L14.6948 2.46363C15.3068 1.96263 16.2248 2.39913 16.2241 3.18888L16.2151 8.70063C16.2143 9.49038 15.2956 9.92313 14.6851 9.42213L12.2251 7.40088" stroke="#74706E" stroke-width="1.5" stroke-linecap="round" stroke-linejoin="round"/>
</g>
</svg>
