<svg width="30" height="30" viewBox="0 0 30 30" fill="none" xmlns="http://www.w3.org/2000/svg">
<path d="M27.0056 2.81251H9.09844C8.95162 2.81214 8.80617 2.84075 8.67043 2.89671C8.53469 2.95267 8.41133 3.03487 8.30742 3.1386C8.20352 3.24233 8.12111 3.36555 8.06492 3.5012C8.00874 3.63684 7.97988 3.78225 7.98 3.92907V8.90626L18.3572 11.9531L28.125 8.90626V3.92907C28.1251 3.78217 28.0962 3.63669 28.04 3.50098C27.9837 3.36527 27.9013 3.24201 27.7973 3.13827C27.6932 3.03452 27.5698 2.95234 27.4339 2.89644C27.2981 2.84054 27.1525 2.81201 27.0056 2.81251Z" fill="#41A5EE"/>
<path d="M28.125 8.90625H7.98V15L18.3572 16.8281L28.125 15V8.90625Z" fill="#2B7CD3"/>
<path d="M7.98 15V21.0937L17.7469 22.3125L28.125 21.0937V15H7.98Z" fill="#185ABD"/>
<path d="M9.09844 27.1875H27.0047C27.1517 27.1881 27.2973 27.1597 27.4333 27.1038C27.5692 27.048 27.6928 26.9658 27.7969 26.8621C27.901 26.7583 27.9836 26.635 28.0399 26.4992C28.0962 26.3635 28.1251 26.2179 28.125 26.0709V21.0938H7.98V26.0709C7.97988 26.2178 8.00874 26.3632 8.06492 26.4988C8.12111 26.6345 8.20352 26.7577 8.30742 26.8614C8.41133 26.9651 8.53469 27.0473 8.67043 27.1033C8.80617 27.1593 8.95162 27.1879 9.09844 27.1875Z" fill="#103F91"/>
<path opacity="0.1" d="M15.4069 7.6875H7.98V22.9219H15.4069C15.7028 22.9204 15.9863 22.8024 16.1958 22.5934C16.4053 22.3844 16.524 22.1012 16.5263 21.8053V8.80406C16.524 8.50813 16.4053 8.22499 16.1958 8.01599C15.9863 7.80699 15.7028 7.68897 15.4069 7.6875Z" fill="black"/>
<path opacity="0.2" d="M14.7966 8.29688H7.98V23.5312H14.7966C15.0925 23.5298 15.3759 23.4118 15.5855 23.2028C15.795 22.9938 15.9137 22.7106 15.9159 22.4147V9.41344C15.9137 9.11751 15.795 8.83436 15.5855 8.62537C15.3759 8.41637 15.0925 8.29835 14.7966 8.29688Z" fill="black"/>
<path opacity="0.2" d="M14.7966 8.29688H7.98V22.3125H14.7966C15.0925 22.311 15.3759 22.193 15.5855 21.984C15.795 21.775 15.9137 21.4919 15.9159 21.1959V9.41344C15.9137 9.11751 15.795 8.83436 15.5855 8.62537C15.3759 8.41637 15.0925 8.29835 14.7966 8.29688Z" fill="black"/>
<path opacity="0.2" d="M14.1863 8.29688H7.98V22.3125H14.1863C14.4822 22.311 14.7656 22.193 14.9752 21.984C15.1847 21.775 15.3034 21.4919 15.3056 21.1959V9.41344C15.3034 9.11751 15.1847 8.83436 14.9752 8.62537C14.7656 8.41637 14.4822 8.29835 14.1863 8.29688Z" fill="black"/>
<path d="M2.99438 8.29688H14.1862C14.4827 8.29663 14.7672 8.4141 14.977 8.62347C15.1869 8.83284 15.3051 9.11698 15.3056 9.41344V20.5866C15.3051 20.883 15.1869 21.1672 14.977 21.3765C14.7672 21.5859 14.4827 21.7034 14.1862 21.7031H2.99438C2.84748 21.7036 2.70192 21.6751 2.56608 21.6192C2.43023 21.5633 2.30676 21.4811 2.20275 21.3774C2.09875 21.2736 2.01625 21.1504 1.96001 21.0147C1.90377 20.8789 1.87488 20.7335 1.875 20.5866V9.41344C1.87488 9.26654 1.90377 9.12106 1.96001 8.98536C2.01625 8.84965 2.09875 8.72639 2.20275 8.62264C2.30676 8.5189 2.43023 8.43672 2.56608 8.38081C2.70192 8.32491 2.84748 8.29639 2.99438 8.29688Z" fill="url(#paint0_linear_135_3393)"/>
<path d="M6.46875 16.8638C6.49062 17.0363 6.505 17.1866 6.51187 17.3147H6.53812C6.5475 17.1929 6.56781 17.046 6.59906 16.8741C6.64594 16.6163 6.65719 16.5572 6.6825 16.4382L7.85906 11.3691H9.38156L10.6003 16.3622C10.6707 16.6712 10.7214 16.9843 10.7522 17.2997H10.7728C10.7962 16.9927 10.8385 16.6875 10.8994 16.3857L11.8734 11.3625H13.2581L11.5481 18.6263H9.92906L8.76937 13.8207C8.73562 13.6819 8.6975 13.5013 8.655 13.2788C8.6125 13.0563 8.58625 12.8938 8.57625 12.7913H8.55656C8.54344 12.9094 8.51719 13.0847 8.47781 13.3172C8.43844 13.5497 8.40719 13.7222 8.38406 13.8347L7.29375 18.6291H5.6475L3.92812 11.3691H5.33437L6.39469 16.4485C6.42559 16.5857 6.45031 16.7243 6.46875 16.8638Z" fill="white"/>
<defs>
<linearGradient id="paint0_linear_135_3393" x1="4.21313" y1="7.41938" x2="12.9675" y2="22.5806" gradientUnits="userSpaceOnUse">
<stop stop-color="#2368C4"/>
<stop offset="0.5" stop-color="#1A5DBE"/>
<stop offset="1" stop-color="#1146AC"/>
</linearGradient>
</defs>
</svg>
