<svg width="30" height="30" viewBox="0 0 30 30" fill="none" xmlns="http://www.w3.org/2000/svg">
<g clip-path="url(#clip0_31_2916)">
<mask id="mask0_31_2916" style="mask-type:alpha" maskUnits="userSpaceOnUse" x="0" y="0" width="30" height="30">
<path fill-rule="evenodd" clip-rule="evenodd" d="M21.2736 29.7951C21.5123 29.8882 21.7677 29.9311 22.0237 29.9213C22.2797 29.9114 22.531 29.849 22.7619 29.7379L28.9384 26.7658C29.2564 26.6127 29.5248 26.3729 29.7127 26.074C29.9005 25.7751 30.0001 25.4292 30.0001 25.0762V4.92396C30.0002 4.5709 29.9006 4.22499 29.7127 3.92604C29.5249 3.6271 29.2565 3.38725 28.9384 3.23411L22.7619 0.262472C22.4129 0.094544 22.0203 0.0392541 21.6385 0.104255C21.2567 0.169255 20.9045 0.351332 20.6307 0.625285L8.80649 11.4126L3.65633 7.50302C3.42397 7.32671 3.13724 7.23726 2.84585 7.25019C2.55446 7.26312 2.27678 7.3776 2.06094 7.5738L0.409068 9.07638C0.280338 9.19346 0.177462 9.33613 0.107023 9.49524C0.0365843 9.65436 0.000132724 9.82643 3.61771e-07 10.0004C-0.000132 10.1745 0.0360578 10.3466 0.106255 10.5058C0.176451 10.665 0.27911 10.8078 0.407662 10.9251L4.87415 15L0.407897 19.0751C0.279414 19.1923 0.176817 19.3352 0.106664 19.4944C0.0365109 19.6536 0.000344593 19.8256 0.000476942 19.9996C0.00060929 20.1736 0.0370373 20.3456 0.107433 20.5047C0.177828 20.6638 0.280642 20.8065 0.409303 20.9236L2.06118 22.4261C2.27698 22.6224 2.55465 22.7369 2.84604 22.7499C3.13744 22.7628 3.42418 22.6734 3.65657 22.4972L8.80672 18.5878L20.6309 29.3749C20.8139 29.5578 21.0326 29.7009 21.2736 29.7951ZM22.5045 8.18974L13.5329 15L22.5048 21.8104L22.5045 8.18974Z" fill="white"/>
</mask>
<g mask="url(#mask0_31_2916)">
<path d="M28.9387 3.2391L22.7573 0.262533C22.4082 0.0943894 22.0154 0.0389825 21.6334 0.103988C21.2514 0.168993 20.899 0.351192 20.6252 0.625345L0.389694 19.0751C0.261116 19.1924 0.158432 19.3351 0.088217 19.4944C0.0180017 19.6536 -0.0181984 19.8257 -0.018066 19.9997C-0.0179337 20.1737 0.0185282 20.3457 0.0889857 20.5048C0.159443 20.6639 0.262344 20.8066 0.391101 20.9236L2.04391 22.4262C2.25978 22.6227 2.53764 22.7374 2.82924 22.7503C3.12084 22.7633 3.40778 22.6737 3.64024 22.4972L28.0084 4.01089C28.8259 3.39074 30.0002 3.97386 30.0002 4.99995V4.92824C30.0002 4.57528 29.9006 4.22949 29.7128 3.93064C29.525 3.63178 29.2567 3.39223 28.9387 3.2391Z" fill="#0065A9"/>
<g filter="url(#filter0_d_31_2916)">
<path d="M28.9387 26.7612L22.7573 29.7373C22.4082 29.9055 22.0155 29.961 21.6334 29.8961C21.2514 29.8312 20.8991 29.6491 20.6252 29.375L0.389694 10.925C0.261116 10.8077 0.158432 10.6649 0.088217 10.5057C0.0180017 10.3465 -0.0181984 10.1744 -0.018066 10.0004C-0.0179337 9.82641 0.0185282 9.65435 0.0889857 9.49525C0.159443 9.33615 0.262344 9.19351 0.391101 9.07647L2.04391 7.57389C2.25978 7.37742 2.53764 7.26274 2.82924 7.24977C3.12084 7.2368 3.40778 7.32635 3.64024 7.50287L28.0084 25.989C28.8259 26.6094 30.0002 26.0262 30.0002 25.0001V25.0719C30.0002 25.4248 29.9006 25.7706 29.7128 26.0695C29.525 26.3683 29.2567 26.6081 28.9387 26.7612Z" fill="#007ACC"/>
</g>
<g filter="url(#filter1_d_31_2916)">
<path d="M22.7576 29.738C22.4083 29.9058 22.0156 29.961 21.6336 29.896C21.2516 29.8309 20.8993 29.6489 20.6252 29.3749C21.3171 30.0668 22.5002 29.5767 22.5002 28.5982V1.40158C22.5002 0.423059 21.3171 -0.0670186 20.6252 0.625091C20.8993 0.35115 21.2516 0.169084 21.6336 0.104049C22.0156 0.0390138 22.4083 0.0942219 22.7576 0.262044L28.9378 3.23439C29.2561 3.38743 29.5246 3.62723 29.7126 3.92618C29.9005 4.22514 30.0003 4.5711 30.0002 4.92423V25.0763C30.0003 25.4294 29.9005 25.7754 29.7126 26.0743C29.5246 26.3733 29.2561 26.6131 28.9378 26.7661L22.7576 29.738Z" fill="#1F9CF0"/>
</g>
<path opacity="0.25" fill-rule="evenodd" clip-rule="evenodd" d="M21.2557 29.7951C21.4944 29.8881 21.7496 29.9311 22.0056 29.9212C22.2616 29.9114 22.5128 29.849 22.7437 29.7379L28.9202 26.7658C29.2383 26.6127 29.5067 26.3728 29.6945 26.0739C29.8824 25.775 29.982 25.429 29.9819 25.076V4.92396C29.982 4.5709 29.8824 4.22499 29.6945 3.92604C29.5067 3.6271 29.2383 3.38725 28.9202 3.23411L22.7437 0.262472C22.3947 0.094544 22.0021 0.0392541 21.6203 0.104255C21.2385 0.169255 20.8863 0.351332 20.6125 0.625285L8.78831 11.4126L3.63815 7.50325C3.40579 7.32694 3.11906 7.2375 2.82767 7.25043C2.53628 7.26335 2.2586 7.37784 2.04276 7.57404L0.390888 9.07661C0.26219 9.19372 0.159343 9.33639 0.0889248 9.4955C0.0185066 9.65462 -0.0179337 9.82668 -0.018066 10.0007C-0.0181984 10.1747 0.0179801 10.3468 0.0881562 10.506C0.158332 10.6652 0.260962 10.8081 0.389482 10.9254L4.85597 15L0.389716 19.0748C0.261164 19.1921 0.158506 19.3349 0.0883089 19.4941C0.0181121 19.6534 -0.0180777 19.8255 -0.0179453 19.9995C-0.0178129 20.1735 0.0186386 20.3456 0.0890776 20.5047C0.159516 20.6638 0.262392 20.8065 0.391123 20.9236L2.043 22.4261C2.2588 22.6224 2.53647 22.7369 2.82786 22.7499C3.11926 22.7628 3.406 22.6734 3.63839 22.4972L8.78878 18.5876L20.613 29.3749C20.7959 29.5578 21.0147 29.7009 21.2557 29.7951ZM22.4866 8.1895L13.5147 15L22.4866 21.8102V8.1895Z" fill="url(#paint0_linear_31_2916)"/>
</g>
</g>
<defs>
<filter id="filter0_d_31_2916" x="-8.35207" y="-1.08546" width="46.6863" height="39.3419" filterUnits="userSpaceOnUse" color-interpolation-filters="sRGB">
<feFlood flood-opacity="0" result="BackgroundImageFix"/>
<feColorMatrix in="SourceAlpha" type="matrix" values="0 0 0 0 0 0 0 0 0 0 0 0 0 0 0 0 0 0 127 0" result="hardAlpha"/>
<feOffset/>
<feGaussianBlur stdDeviation="4.167"/>
<feColorMatrix type="matrix" values="0 0 0 0 0 0 0 0 0 0 0 0 0 0 0 0 0 0 0.25 0"/>
<feBlend mode="overlay" in2="BackgroundImageFix" result="effect1_dropShadow_31_2916"/>
<feBlend mode="normal" in="SourceGraphic" in2="effect1_dropShadow_31_2916" result="shape"/>
</filter>
<filter id="filter1_d_31_2916" x="12.2912" y="-8.25648" width="26.043" height="46.513" filterUnits="userSpaceOnUse" color-interpolation-filters="sRGB">
<feFlood flood-opacity="0" result="BackgroundImageFix"/>
<feColorMatrix in="SourceAlpha" type="matrix" values="0 0 0 0 0 0 0 0 0 0 0 0 0 0 0 0 0 0 127 0" result="hardAlpha"/>
<feOffset/>
<feGaussianBlur stdDeviation="4.167"/>
<feColorMatrix type="matrix" values="0 0 0 0 0 0 0 0 0 0 0 0 0 0 0 0 0 0 0.25 0"/>
<feBlend mode="overlay" in2="BackgroundImageFix" result="effect1_dropShadow_31_2916"/>
<feBlend mode="normal" in="SourceGraphic" in2="effect1_dropShadow_31_2916" result="shape"/>
</filter>
<linearGradient id="paint0_linear_31_2916" x1="14.9819" y1="0.0773161" x2="14.9819" y2="29.9226" gradientUnits="userSpaceOnUse">
<stop stop-color="white"/>
<stop offset="1" stop-color="white" stop-opacity="0"/>
</linearGradient>
<clipPath id="clip0_31_2916">
<rect width="30" height="30" fill="white"/>
</clipPath>
</defs>
</svg>
