<svg width="18" height="18" viewBox="0 0 18 18" fill="none" xmlns="http://www.w3.org/2000/svg">
<g id="Work Load Analysis">
<path id="Vector" d="M11.6932 13.5L13.6418 16.875H12.3435L10.395 13.5H7.61175L5.66325 16.875H4.365L6.3135 13.5H2.8125C2.66332 13.5 2.52024 13.4407 2.41475 13.3352C2.30926 13.2298 2.25 13.0867 2.25 12.9375V3.375H1.125C0.975816 3.375 0.832742 3.31574 0.727252 3.21025C0.621763 3.10476 0.5625 2.96168 0.5625 2.8125C0.5625 2.66332 0.621763 2.52024 0.727252 2.41475C0.832742 2.30926 0.975816 2.25 1.125 2.25H16.875C17.0242 2.25 17.1673 2.30926 17.2727 2.41475C17.3782 2.52024 17.4375 2.66332 17.4375 2.8125C17.4375 2.96168 17.3782 3.10476 17.2727 3.21025C17.1673 3.31574 17.0242 3.375 16.875 3.375H15.75V12.9375C15.75 13.0867 15.6907 13.2298 15.5852 13.3352C15.4798 13.4407 15.3367 13.5 15.1875 13.5H11.6932ZM14.625 3.375H3.375V12.375H14.625V3.375ZM6.1875 7.875C6.33668 7.875 6.47976 7.93426 6.58525 8.03975C6.69074 8.14524 6.75 8.28832 6.75 8.4375V9.5625C6.75 9.71168 6.69074 9.85476 6.58525 9.96025C6.47976 10.0657 6.33668 10.125 6.1875 10.125C6.03832 10.125 5.89524 10.0657 5.78975 9.96025C5.68426 9.85476 5.625 9.71168 5.625 9.5625V8.4375C5.625 8.28832 5.68426 8.14524 5.78975 8.03975C5.89524 7.93426 6.03832 7.875 6.1875 7.875ZM9 6.75C9.14918 6.75 9.29226 6.80926 9.39775 6.91475C9.50324 7.02024 9.5625 7.16332 9.5625 7.3125V9.5625C9.5625 9.71168 9.50324 9.85476 9.39775 9.96025C9.29226 10.0657 9.14918 10.125 9 10.125C8.85082 10.125 8.70774 10.0657 8.60225 9.96025C8.49676 9.85476 8.4375 9.71168 8.4375 9.5625V7.3125C8.4375 7.16332 8.49676 7.02024 8.60225 6.91475C8.70774 6.80926 8.85082 6.75 9 6.75ZM11.8125 5.625C11.9617 5.625 12.1048 5.68426 12.2102 5.78975C12.3157 5.89524 12.375 6.03832 12.375 6.1875V9.5625C12.375 9.71168 12.3157 9.85476 12.2102 9.96025C12.1048 10.0657 11.9617 10.125 11.8125 10.125C11.6633 10.125 11.5202 10.0657 11.4148 9.96025C11.3093 9.85476 11.25 9.71168 11.25 9.5625V6.1875C11.25 6.03832 11.3093 5.89524 11.4148 5.78975C11.5202 5.68426 11.6633 5.625 11.8125 5.625Z" fill="#74706E"/>
</g>
</svg>
