<svg width="18" height="18" viewBox="0 0 18 18" fill="none" xmlns="http://www.w3.org/2000/svg">
<g id="Work Activity Log">
<path id="Vector" d="M3.375 4.6875C3.375 3.963 3.963 3.375 4.6875 3.375H13.3125C14.037 3.375 14.625 3.963 14.625 4.6875V13.3125C14.625 13.6606 14.4867 13.9944 14.2406 14.2406C13.9944 14.4867 13.6606 14.625 13.3125 14.625H9.51525C9.38678 15.0212 9.20808 15.3993 8.9835 15.75H13.3125C13.959 15.75 14.579 15.4932 15.0361 15.0361C15.4932 14.579 15.75 13.959 15.75 13.3125V4.6875C15.75 4.04103 15.4932 3.42105 15.0361 2.96393C14.579 2.50681 13.959 2.25 13.3125 2.25H4.6875C4.04103 2.25 3.42105 2.50681 2.96393 2.96393C2.50681 3.42105 2.25 4.04103 2.25 4.6875V9.0165C2.60075 8.79192 2.97883 8.61322 3.375 8.48475V4.6875ZM9.375 5.0625C9.375 4.91332 9.31574 4.77024 9.21025 4.66475C9.10476 4.55926 8.96168 4.5 8.8125 4.5C8.66332 4.5 8.52024 4.55926 8.41475 4.66475C8.30926 4.77024 8.25 4.91332 8.25 5.0625V9.5625C8.25 9.873 8.502 10.125 8.8125 10.125H12.1875C12.3367 10.125 12.4798 10.0657 12.5852 9.96025C12.6907 9.85476 12.75 9.71168 12.75 9.5625C12.75 9.41332 12.6907 9.27024 12.5852 9.16475C12.4798 9.05926 12.3367 9 12.1875 9H9.375V5.0625ZM9 13.125C9 13.6667 8.8933 14.2031 8.686 14.7036C8.4787 15.204 8.17486 15.6588 7.79182 16.0418C7.40877 16.4249 6.95404 16.7287 6.45357 16.936C5.9531 17.1433 5.4167 17.25 4.875 17.25C4.3333 17.25 3.7969 17.1433 3.29643 16.936C2.79596 16.7287 2.34123 16.4249 1.95818 16.0418C1.57514 15.6588 1.2713 15.204 1.064 14.7036C0.856696 14.2031 0.75 13.6667 0.75 13.125C0.75 12.031 1.1846 10.9818 1.95818 10.2082C2.73177 9.4346 3.78098 9 4.875 9C5.96902 9 7.01823 9.4346 7.79182 10.2082C8.5654 10.9818 9 12.031 9 13.125ZM6.6405 11.7345C6.60567 11.6996 6.56428 11.6719 6.51872 11.653C6.47317 11.6341 6.42433 11.6243 6.375 11.6243C6.32567 11.6243 6.27683 11.6341 6.23128 11.653C6.18572 11.6719 6.14433 11.6996 6.1095 11.7345L4.125 13.7197L3.453 13.047C3.38259 12.9766 3.28708 12.937 3.1875 12.937C3.08792 12.937 2.99241 12.9766 2.922 13.047C2.85158 13.1174 2.81203 13.2129 2.81203 13.3125C2.81203 13.4121 2.85158 13.5076 2.922 13.578L3.8595 14.5155C3.89433 14.5504 3.93572 14.5781 3.98127 14.597C4.02683 14.6159 4.07567 14.6257 4.125 14.6257C4.17433 14.6257 4.22317 14.6159 4.26873 14.597C4.31428 14.5781 4.35567 14.5504 4.3905 14.5155L6.6405 12.2655C6.67542 12.2307 6.70313 12.1893 6.72203 12.1437C6.74094 12.0982 6.75067 12.0493 6.75067 12C6.75067 11.9507 6.74094 11.9018 6.72203 11.8563C6.70313 11.8107 6.67542 11.7693 6.6405 11.7345Z" fill="#74706E"/>
</g>
</svg>
