<svg width="107" height="107" viewBox="0 0 107 107" fill="none" xmlns="http://www.w3.org/2000/svg">
<g filter="url(#filter0_dd_102_2834)">
<circle cx="53.5642" cy="51.5645" r="46.8435" fill="white"/>
</g>
<g clip-path="url(#clip0_102_2834)">
<path d="M62.0794 55.8232H65.2733V61.8276L70.4687 64.8299L68.8717 67.5979L62.0794 63.6801V55.8232ZM64.2087 51.5647C61.3851 51.5647 58.6772 52.6863 56.6806 54.6829C54.6841 56.6794 53.5624 59.3873 53.5624 62.2109C53.5624 65.0345 54.6841 67.7424 56.6806 69.739C58.6772 71.7355 61.3851 72.8572 64.2087 72.8572C67.0322 72.8572 69.7401 71.7355 71.7367 69.739C73.7333 67.7424 74.8549 65.0345 74.8549 62.2109C74.8549 59.3873 73.7333 56.6794 71.7367 54.6829C69.7401 52.6863 67.0322 51.5647 64.2087 51.5647ZM64.2087 47.3062C68.1616 47.3062 71.9527 48.8765 74.7479 51.6717C77.5431 54.4668 79.1134 58.2579 79.1134 62.2109C79.1134 66.1639 77.5431 69.955 74.7479 72.7502C71.9527 75.5454 68.1616 77.1157 64.2087 77.1157C58.268 77.1157 53.1365 73.6237 50.7305 68.5987H30.1406V62.2109C30.1406 56.5471 41.4895 53.6939 47.1746 53.6939C48.4522 53.6939 50.0278 53.843 51.6887 54.1198C53.0389 52.0273 54.8926 50.3071 57.0799 49.1167C59.2673 47.9263 61.7184 47.3038 64.2087 47.3062ZM49.3039 62.2109C49.3039 60.7204 49.5168 59.2725 49.9214 57.9524C49.0271 57.8034 48.0902 57.7395 47.1746 57.7395C40.8508 57.7395 34.1862 60.8482 34.1862 62.2109V64.5531H49.4955C49.3701 63.7786 49.306 62.9955 49.3039 62.2109ZM47.1746 34.5306C49.4335 34.5306 51.5998 35.428 53.1971 37.0252C54.7943 38.6225 55.6916 40.7888 55.6916 43.0476C55.6916 45.3065 54.7943 47.4728 53.1971 49.0701C51.5998 50.6673 49.4335 51.5647 47.1746 51.5647C44.9158 51.5647 42.7495 50.6673 41.1522 49.0701C39.555 47.4728 38.6576 45.3065 38.6576 43.0476C38.6576 40.7888 39.555 38.6225 41.1522 37.0252C42.7495 35.428 44.9158 34.5306 47.1746 34.5306ZM47.1746 38.5762C45.9887 38.5762 44.8514 39.0473 44.0129 39.8859C43.1743 40.7244 42.7032 41.8618 42.7032 43.0476C42.7032 44.2335 43.1743 45.3709 44.0129 46.2094C44.8514 47.048 45.9887 47.5191 47.1746 47.5191C48.3605 47.5191 49.4979 47.048 50.3364 46.2094C51.175 45.3709 51.6461 44.2335 51.6461 43.0476C51.6461 41.8618 51.175 40.7244 50.3364 39.8859C49.4979 39.0473 48.3605 38.5762 47.1746 38.5762Z" fill="#FFBE16"/>
</g>
<defs>
<filter id="filter0_dd_102_2834" x="0.332948" y="0.462443" width="106.463" height="106.463" filterUnits="userSpaceOnUse" color-interpolation-filters="sRGB">
<feFlood flood-opacity="0" result="BackgroundImageFix"/>
<feColorMatrix in="SourceAlpha" type="matrix" values="0 0 0 0 0 0 0 0 0 0 0 0 0 0 0 0 0 0 127 0" result="hardAlpha"/>
<feOffset dy="2.12925"/>
<feGaussianBlur stdDeviation="2.12925"/>
<feColorMatrix type="matrix" values="0 0 0 0 0 0 0 0 0 0 0 0 0 0 0 0 0 0 0.06 0"/>
<feBlend mode="normal" in2="BackgroundImageFix" result="effect1_dropShadow_102_2834"/>
<feColorMatrix in="SourceAlpha" type="matrix" values="0 0 0 0 0 0 0 0 0 0 0 0 0 0 0 0 0 0 127 0" result="hardAlpha"/>
<feOffset dy="2.12925"/>
<feGaussianBlur stdDeviation="3.19388"/>
<feColorMatrix type="matrix" values="0 0 0 0 0 0 0 0 0 0 0 0 0 0 0 0 0 0 0.1 0"/>
<feBlend mode="normal" in2="effect1_dropShadow_102_2834" result="effect2_dropShadow_102_2834"/>
<feBlend mode="normal" in="SourceGraphic" in2="effect2_dropShadow_102_2834" result="shape"/>
</filter>
<clipPath id="clip0_102_2834">
<rect width="51.102" height="51.102" fill="white" transform="translate(28.0137 26.0137)"/>
</clipPath>
</defs>
</svg>
