<svg width="30" height="30" viewBox="0 0 30 30" fill="none" xmlns="http://www.w3.org/2000/svg">
<g clip-path="url(#clip0_31_2991)">
<path d="M29.3374 9.29004C29.1654 8.65413 28.8297 8.07439 28.3639 7.60855C27.8981 7.14271 27.3183 6.80702 26.6824 6.63492C24.3544 6 14.9848 6 14.9848 6C14.9848 6 5.61471 6.01922 3.28666 6.65414C2.65075 6.82625 2.07101 7.16196 1.60519 7.62782C1.13937 8.09368 0.80372 8.67344 0.631663 9.30938C-0.0725165 13.4459 -0.345681 19.7489 0.650999 23.7199C0.823074 24.3558 1.15873 24.9356 1.62455 25.4014C2.09037 25.8673 2.6701 26.2029 3.306 26.375C5.63405 27.01 15.0039 27.01 15.0039 27.01C15.0039 27.01 24.3736 27.01 26.7015 26.375C27.3375 26.203 27.9172 25.8673 28.3831 25.4014C28.8489 24.9356 29.1846 24.3559 29.3567 23.7199C30.0994 19.5776 30.3283 13.2784 29.3374 9.29004Z" fill="#FF0000"/>
<path d="M12.0024 21.007L19.7753 16.5049L12.0024 12.0028V21.007Z" fill="white"/>
</g>
<defs>
<clipPath id="clip0_31_2991">
<rect width="30" height="21.0938" fill="white" transform="translate(0 6)"/>
</clipPath>
</defs>
</svg>
